<?xml version="1.0" encoding="UTF-8" standalone="no"?>
<!-- Generator: Adobe Illustrator 12.0.0, SVG Export Plug-In . SVG Version: 6.00 Build 51448)  -->

<svg
   xmlns:dc="http://purl.org/dc/elements/1.1/"
   xmlns:cc="http://creativecommons.org/ns#"
   xmlns:rdf="http://www.w3.org/1999/02/22-rdf-syntax-ns#"
   xmlns:svg="http://www.w3.org/2000/svg"
   xmlns="http://www.w3.org/2000/svg"
   xmlns:xlink="http://www.w3.org/1999/xlink"
   xmlns:sodipodi="http://sodipodi.sourceforge.net/DTD/sodipodi-0.dtd"
   xmlns:inkscape="http://www.inkscape.org/namespaces/inkscape"
   id="Layer_1"
   space="preserve"
   sodipodi:docname="level2_bg.svg"
   viewBox="0 0 1024 768"
   sodipodi:version="0.32"
   version="1.1"
   inkscape:version="0.48.4 r9939"
   width="100%"
   height="100%"
   inkscape:export-filename="C:\Users\b17427\Downloads\texturelegno.png"
   inkscape:export-xdpi="89.755943"
   inkscape:export-ydpi="89.755943">
  <defs
     id="defs74">
    <linearGradient
       y2="234.03"
       x2="187.08"
       y1="238.06"
       x1="205.11"
       gradientTransform="matrix(0.64729,0,0,0.64729,-106.14186,-71.8822)"
       gradientUnits="userSpaceOnUse"
       id="linearGradient3131"
       xlink:href="#linearGradient5048"
       inkscape:collect="always" />
    <linearGradient
       y2="255.19"
       x2="219.97"
       y1="258.65"
       x1="245.59"
       gradientTransform="matrix(0.64729,0,0,0.64729,-106.14186,-71.8822)"
       gradientUnits="userSpaceOnUse"
       id="linearGradient3129"
       xlink:href="#linearGradient5064"
       inkscape:collect="always" />
    <linearGradient
       y2="189.48"
       x2="187.22"
       y1="195.7"
       x1="196.1"
       gradientTransform="matrix(0.64729,0,0,0.64729,-106.14186,-71.8822)"
       gradientUnits="userSpaceOnUse"
       id="linearGradient3127"
       xlink:href="#linearGradient5024"
       inkscape:collect="always" />
    <linearGradient
       y2="149.16"
       x2="72.172"
       y1="156.55"
       x1="86.423"
       gradientTransform="matrix(0.44918,0,0,0.45729,-15.73186,-18.7822)"
       gradientUnits="userSpaceOnUse"
       id="linearGradient3125"
       xlink:href="#linearGradient2845"
       inkscape:collect="always" />
    <linearGradient
       y2="147.48"
       x2="210.52"
       y1="158.29"
       x1="217.73"
       gradientTransform="matrix(0.64729,0,0,0.64729,-92.427961,-78.739149)"
       gradientUnits="userSpaceOnUse"
       id="linearGradient3123"
       xlink:href="#linearGradient5032"
       inkscape:collect="always" />
    <linearGradient
       y2="225.45"
       x2="261.44"
       y1="244.83"
       x1="274.06"
       gradientTransform="matrix(0.64729,0,0,0.64729,-108.25169,-72.937115)"
       gradientUnits="userSpaceOnUse"
       id="linearGradient3121"
       xlink:href="#linearGradient5072"
       inkscape:collect="always" />
    <linearGradient
       y2="71.67"
       x2="207.88"
       y1="368.09"
       x1="281.98"
       gradientTransform="matrix(0.51163,0,0,0.51163,-66.209336,-49.131857)"
       gradientUnits="userSpaceOnUse"
       id="linearGradient3097"
       xlink:href="#linearGradient2783"
       inkscape:collect="always" />
    <linearGradient
       gradientTransform="matrix(0.44918,0,0,0.45729,-15.73186,-18.7822)"
       y2="149.16"
       x2="72.172"
       y1="156.55"
       x1="86.423"
       gradientUnits="userSpaceOnUse"
       id="linearGradient3087"
       xlink:href="#linearGradient2845"
       inkscape:collect="always" />
    <linearGradient
       y2="132.25"
       x2="247.96"
       y1="138.01"
       x1="249.28"
       gradientTransform="matrix(0.64729,0,0,0.64729,-242.75338,-73.99203)"
       gradientUnits="userSpaceOnUse"
       id="linearGradient3084"
       xlink:href="#linearGradient5040"
       inkscape:collect="always" />
    <linearGradient
       y2="147.48"
       x2="210.52"
       y1="158.29"
       x1="217.73"
       gradientTransform="matrix(0.64729,0,0,0.64729,-92.427961,-78.739149)"
       gradientUnits="userSpaceOnUse"
       id="linearGradient3081"
       xlink:href="#linearGradient5032"
       inkscape:collect="always" />
    <linearGradient
       y2="189.48"
       x2="187.22"
       y1="195.7"
       x1="196.1"
       gradientTransform="matrix(0.64729,0,0,0.64729,-106.14186,-71.8822)"
       gradientUnits="userSpaceOnUse"
       id="linearGradient3078"
       xlink:href="#linearGradient5024"
       inkscape:collect="always" />
    <linearGradient
       y2="234.03"
       x2="187.08"
       y1="238.06"
       x1="205.11"
       gradientTransform="matrix(0.64729,0,0,0.64729,-106.14186,-71.8822)"
       gradientUnits="userSpaceOnUse"
       id="linearGradient3075"
       xlink:href="#linearGradient5048"
       inkscape:collect="always" />
    <linearGradient
       y2="255.19"
       x2="219.97"
       y1="258.65"
       x1="245.59"
       gradientTransform="matrix(0.64729,0,0,0.64729,-106.14186,-71.8822)"
       gradientUnits="userSpaceOnUse"
       id="linearGradient3072"
       xlink:href="#linearGradient5064"
       inkscape:collect="always" />
    <linearGradient
       y2="225.45"
       x2="261.44"
       y1="244.83"
       x1="274.06"
       gradientTransform="matrix(0.64729,0,0,0.64729,-108.25169,-72.937115)"
       gradientUnits="userSpaceOnUse"
       id="linearGradient3069"
       xlink:href="#linearGradient5072"
       inkscape:collect="always" />
    <linearGradient
       y2="193.9"
       x2="308.02"
       y1="212.38"
       x1="314.62"
       gradientTransform="matrix(0.64729,0,0,0.64729,-106.14186,-71.8822)"
       gradientUnits="userSpaceOnUse"
       id="linearGradient3066"
       xlink:href="#linearGradient5080"
       inkscape:collect="always" />
    <linearGradient
       y2="193.9"
       x2="308.02"
       y1="212.38"
       x1="314.62"
       gradientTransform="matrix(0.64729,0,0,0.64729,35.29,153.36)"
       gradientUnits="userSpaceOnUse"
       id="linearGradient3063"
       xlink:href="#linearGradient5080"
       inkscape:collect="always" />
    <linearGradient
       y2="225.45"
       x2="261.44"
       y1="244.83"
       x1="274.06"
       gradientTransform="matrix(0.64729,0,0,0.64729,35.29,153.36)"
       gradientUnits="userSpaceOnUse"
       id="linearGradient3061"
       xlink:href="#linearGradient5072"
       inkscape:collect="always" />
    <linearGradient
       y2="255.19"
       x2="219.97"
       y1="258.65"
       x1="245.59"
       gradientTransform="matrix(0.64729,0,0,0.64729,35.29,153.36)"
       gradientUnits="userSpaceOnUse"
       id="linearGradient3059"
       xlink:href="#linearGradient5064"
       inkscape:collect="always" />
    <linearGradient
       y2="234.03"
       x2="187.08"
       y1="238.06"
       x1="205.11"
       gradientTransform="matrix(0.64729,0,0,0.64729,35.29,153.36)"
       gradientUnits="userSpaceOnUse"
       id="linearGradient3057"
       xlink:href="#linearGradient5048"
       inkscape:collect="always" />
    <linearGradient
       y2="189.48"
       x2="187.22"
       y1="195.7"
       x1="196.1"
       gradientTransform="matrix(0.64729,0,0,0.64729,35.29,153.36)"
       gradientUnits="userSpaceOnUse"
       id="linearGradient3055"
       xlink:href="#linearGradient5024"
       inkscape:collect="always" />
    <linearGradient
       y2="147.48"
       x2="210.52"
       y1="158.29"
       x1="217.73"
       gradientTransform="matrix(0.64729,0,0,0.64729,35.29,153.36)"
       gradientUnits="userSpaceOnUse"
       id="linearGradient3053"
       xlink:href="#linearGradient5032"
       inkscape:collect="always" />
    <linearGradient
       y2="132.25"
       x2="247.96"
       y1="138.01"
       x1="249.28"
       gradientTransform="matrix(0.64729,0,0,0.64729,35.29,153.36)"
       gradientUnits="userSpaceOnUse"
       id="linearGradient3051"
       xlink:href="#linearGradient5040"
       inkscape:collect="always" />
    <linearGradient
       y2="149.16"
       x2="72.172"
       y1="156.55"
       x1="86.423"
       gradientUnits="userSpaceOnUse"
       id="linearGradient3049"
       xlink:href="#linearGradient2845"
       inkscape:collect="always" />
    <linearGradient
       y2="71.67"
       x2="207.88"
       y1="368.09"
       x1="281.98"
       gradientTransform="matrix(0.51163,0,0,0.51163,63.091,180.33)"
       gradientUnits="userSpaceOnUse"
       id="linearGradient3047"
       xlink:href="#linearGradient2783"
       inkscape:collect="always" />
    <linearGradient
       y2="193.9"
       x2="308.02"
       gradientTransform="matrix(0.64729,0,0,0.64729,35.29,153.36)"
       y1="212.38"
       gradientUnits="userSpaceOnUse"
       x1="314.62"
       id="linearGradient5080">
      <stop
         offset="0"
         stop-color="#555753"
         id="stop5076" />
      <stop
         offset="1"
         stop-opacity="0"
         stop-color="#555753"
         id="stop5078" />
    </linearGradient>
    <linearGradient
       y2="225.45"
       x2="261.44"
       gradientTransform="matrix(0.64729,0,0,0.64729,35.29,153.36)"
       y1="244.83"
       gradientUnits="userSpaceOnUse"
       x1="274.06"
       id="linearGradient5072">
      <stop
         offset="0"
         stop-color="#8ae234"
         id="stop5068" />
      <stop
         offset="1"
         stop-opacity="0"
         stop-color="#8ae234"
         id="stop5070" />
    </linearGradient>
    <linearGradient
       y2="255.19"
       x2="219.97"
       gradientTransform="matrix(0.64729,0,0,0.64729,35.29,153.36)"
       y1="258.65"
       gradientUnits="userSpaceOnUse"
       x1="245.59"
       id="linearGradient5064">
      <stop
         offset="0"
         stop-color="#fce94f"
         id="stop5060" />
      <stop
         offset="1"
         stop-opacity="0"
         stop-color="#fce94f"
         id="stop5062" />
    </linearGradient>
    <linearGradient
       y2="234.03"
       x2="187.08"
       gradientTransform="matrix(0.64729,0,0,0.64729,35.29,153.36)"
       y1="238.06"
       gradientUnits="userSpaceOnUse"
       x1="205.11"
       id="linearGradient5048">
      <stop
         offset="0"
         stop-color="#729fcf"
         id="stop5044" />
      <stop
         offset="1"
         stop-opacity="0"
         stop-color="#729fcf"
         id="stop5046" />
    </linearGradient>
    <linearGradient
       y2="189.48"
       x2="187.22"
       gradientTransform="matrix(0.64729,0,0,0.64729,35.29,153.36)"
       y1="195.7"
       gradientUnits="userSpaceOnUse"
       x1="196.1"
       id="linearGradient5024">
      <stop
         offset="0"
         stop-color="#fcaf3e"
         id="stop5020" />
      <stop
         offset="1"
         stop-opacity="0"
         stop-color="#fcaf3e"
         id="stop5022" />
    </linearGradient>
    <linearGradient
       y2="147.48"
       x2="210.52"
       gradientTransform="matrix(0.64729,0,0,0.64729,35.29,153.36)"
       y1="158.29"
       gradientUnits="userSpaceOnUse"
       x1="217.73"
       id="linearGradient5032">
      <stop
         offset="0"
         stop-color="#ef2929"
         id="stop5028" />
      <stop
         offset="1"
         stop-opacity="0"
         stop-color="#ef2929"
         id="stop5030" />
    </linearGradient>
    <linearGradient
       y2="132.25"
       x2="247.96"
       gradientTransform="matrix(0.64729,0,0,0.64729,35.29,153.36)"
       y1="138.01"
       gradientUnits="userSpaceOnUse"
       x1="249.28"
       id="linearGradient5040">
      <stop
         offset="0"
         stop-color="#ad7fa8"
         id="stop5036" />
      <stop
         offset="1"
         stop-opacity="0"
         stop-color="#ad7fa8"
         id="stop5038" />
    </linearGradient>
    <linearGradient
       x1="86.423"
       x2="72.172"
       y1="156.55"
       gradientUnits="userSpaceOnUse"
       y2="149.16"
       id="linearGradient2845">
      <stop
         offset="0"
         stop-color="#f57900"
         id="stop2841" />
      <stop
         offset="1"
         stop-opacity="0"
         stop-color="#f57900"
         id="stop2843" />
    </linearGradient>
    <linearGradient
       y2="71.67"
       x2="207.88"
       gradientTransform="matrix(0.51163,0,0,0.51163,63.091,180.33)"
       y1="368.09"
       gradientUnits="userSpaceOnUse"
       x1="281.98"
       id="linearGradient2783">
      <stop
         offset="0"
         stop-color="#e9b96e"
         id="stop2779" />
      <stop
         offset="1"
         stop-color="#eeeeec"
         id="stop2781" />
    </linearGradient>
    <linearGradient
       gradientTransform="matrix(0.44918,0,0,0.45729,-15.73186,-18.7822)"
       y2="149.16"
       x2="72.172"
       y1="156.55"
       x1="86.423"
       gradientUnits="userSpaceOnUse"
       id="linearGradient3087-3"
       xlink:href="#linearGradient2845-9"
       inkscape:collect="always" />
    <linearGradient
       y2="132.25"
       x2="247.96"
       y1="138.01"
       x1="249.28"
       gradientTransform="matrix(0.64729,0,0,0.64729,-242.75338,-73.99203)"
       gradientUnits="userSpaceOnUse"
       id="linearGradient3084-3"
       xlink:href="#linearGradient5040-8"
       inkscape:collect="always" />
    <linearGradient
       y2="147.48"
       x2="210.52"
       y1="158.29"
       x1="217.73"
       gradientTransform="matrix(0.64729,0,0,0.64729,-92.427961,-78.739149)"
       gradientUnits="userSpaceOnUse"
       id="linearGradient3081-2"
       xlink:href="#linearGradient5032-5"
       inkscape:collect="always" />
    <linearGradient
       y2="189.48"
       x2="187.22"
       y1="195.7"
       x1="196.1"
       gradientTransform="matrix(0.64729,0,0,0.64729,-106.14186,-71.8822)"
       gradientUnits="userSpaceOnUse"
       id="linearGradient3078-1"
       xlink:href="#linearGradient5024-7"
       inkscape:collect="always" />
    <linearGradient
       y2="234.03"
       x2="187.08"
       y1="238.06"
       x1="205.11"
       gradientTransform="matrix(0.64729,0,0,0.64729,-106.14186,-71.8822)"
       gradientUnits="userSpaceOnUse"
       id="linearGradient3075-3"
       xlink:href="#linearGradient5048-5"
       inkscape:collect="always" />
    <linearGradient
       y2="255.19"
       x2="219.97"
       y1="258.65"
       x1="245.59"
       gradientTransform="matrix(0.64729,0,0,0.64729,-106.14186,-71.8822)"
       gradientUnits="userSpaceOnUse"
       id="linearGradient3072-4"
       xlink:href="#linearGradient5064-6"
       inkscape:collect="always" />
    <linearGradient
       y2="225.45"
       x2="261.44"
       y1="244.83"
       x1="274.06"
       gradientTransform="matrix(0.64729,0,0,0.64729,-108.25169,-72.937115)"
       gradientUnits="userSpaceOnUse"
       id="linearGradient3069-5"
       xlink:href="#linearGradient5072-2"
       inkscape:collect="always" />
    <linearGradient
       y2="193.9"
       x2="308.02"
       y1="212.38"
       x1="314.62"
       gradientTransform="matrix(0.64729,0,0,0.64729,-106.14186,-71.8822)"
       gradientUnits="userSpaceOnUse"
       id="linearGradient3066-9"
       xlink:href="#linearGradient5080-2"
       inkscape:collect="always" />
    <linearGradient
       y2="193.9"
       x2="308.02"
       y1="212.38"
       x1="314.62"
       gradientTransform="matrix(0.64729,0,0,0.64729,35.29,153.36)"
       gradientUnits="userSpaceOnUse"
       id="linearGradient3063-7"
       xlink:href="#linearGradient5080-2"
       inkscape:collect="always" />
    <linearGradient
       y2="225.45"
       x2="261.44"
       y1="244.83"
       x1="274.06"
       gradientTransform="matrix(0.64729,0,0,0.64729,35.29,153.36)"
       gradientUnits="userSpaceOnUse"
       id="linearGradient3061-2"
       xlink:href="#linearGradient5072-2"
       inkscape:collect="always" />
    <linearGradient
       y2="255.19"
       x2="219.97"
       y1="258.65"
       x1="245.59"
       gradientTransform="matrix(0.64729,0,0,0.64729,35.29,153.36)"
       gradientUnits="userSpaceOnUse"
       id="linearGradient3059-9"
       xlink:href="#linearGradient5064-6"
       inkscape:collect="always" />
    <linearGradient
       y2="234.03"
       x2="187.08"
       y1="238.06"
       x1="205.11"
       gradientTransform="matrix(0.64729,0,0,0.64729,35.29,153.36)"
       gradientUnits="userSpaceOnUse"
       id="linearGradient3057-8"
       xlink:href="#linearGradient5048-5"
       inkscape:collect="always" />
    <linearGradient
       y2="189.48"
       x2="187.22"
       y1="195.7"
       x1="196.1"
       gradientTransform="matrix(0.64729,0,0,0.64729,35.29,153.36)"
       gradientUnits="userSpaceOnUse"
       id="linearGradient3055-1"
       xlink:href="#linearGradient5024-7"
       inkscape:collect="always" />
    <linearGradient
       y2="147.48"
       x2="210.52"
       y1="158.29"
       x1="217.73"
       gradientTransform="matrix(0.64729,0,0,0.64729,35.29,153.36)"
       gradientUnits="userSpaceOnUse"
       id="linearGradient3053-6"
       xlink:href="#linearGradient5032-5"
       inkscape:collect="always" />
    <linearGradient
       y2="132.25"
       x2="247.96"
       y1="138.01"
       x1="249.28"
       gradientTransform="matrix(0.64729,0,0,0.64729,35.29,153.36)"
       gradientUnits="userSpaceOnUse"
       id="linearGradient3051-7"
       xlink:href="#linearGradient5040-8"
       inkscape:collect="always" />
    <linearGradient
       y2="149.16"
       x2="72.172"
       y1="156.55"
       x1="86.423"
       gradientUnits="userSpaceOnUse"
       id="linearGradient3049-5"
       xlink:href="#linearGradient2845-9"
       inkscape:collect="always" />
    <linearGradient
       y2="71.67"
       x2="207.88"
       y1="368.09"
       x1="281.98"
       gradientTransform="matrix(0.51163,0,0,0.51163,63.091,180.33)"
       gradientUnits="userSpaceOnUse"
       id="linearGradient3047-8"
       xlink:href="#linearGradient2783-7"
       inkscape:collect="always" />
    <linearGradient
       y2="193.9"
       x2="308.02"
       gradientTransform="matrix(0.64729,0,0,0.64729,35.29,153.36)"
       y1="212.38"
       gradientUnits="userSpaceOnUse"
       x1="314.62"
       id="linearGradient5080-2">
      <stop
         offset="0"
         stop-color="#555753"
         id="stop5076-1" />
      <stop
         offset="1"
         stop-opacity="0"
         stop-color="#555753"
         id="stop5078-6" />
    </linearGradient>
    <linearGradient
       y2="225.45"
       x2="261.44"
       gradientTransform="matrix(0.64729,0,0,0.64729,35.29,153.36)"
       y1="244.83"
       gradientUnits="userSpaceOnUse"
       x1="274.06"
       id="linearGradient5072-2">
      <stop
         offset="0"
         stop-color="#8ae234"
         id="stop5068-3" />
      <stop
         offset="1"
         stop-opacity="0"
         stop-color="#8ae234"
         id="stop5070-2" />
    </linearGradient>
    <linearGradient
       y2="255.19"
       x2="219.97"
       gradientTransform="matrix(0.64729,0,0,0.64729,35.29,153.36)"
       y1="258.65"
       gradientUnits="userSpaceOnUse"
       x1="245.59"
       id="linearGradient5064-6">
      <stop
         offset="0"
         stop-color="#fce94f"
         id="stop5060-1" />
      <stop
         offset="1"
         stop-opacity="0"
         stop-color="#fce94f"
         id="stop5062-4" />
    </linearGradient>
    <linearGradient
       y2="234.03"
       x2="187.08"
       gradientTransform="matrix(0.64729,0,0,0.64729,35.29,153.36)"
       y1="238.06"
       gradientUnits="userSpaceOnUse"
       x1="205.11"
       id="linearGradient5048-5">
      <stop
         offset="0"
         stop-color="#729fcf"
         id="stop5044-2" />
      <stop
         offset="1"
         stop-opacity="0"
         stop-color="#729fcf"
         id="stop5046-7" />
    </linearGradient>
    <linearGradient
       y2="189.48"
       x2="187.22"
       gradientTransform="matrix(0.64729,0,0,0.64729,35.29,153.36)"
       y1="195.7"
       gradientUnits="userSpaceOnUse"
       x1="196.1"
       id="linearGradient5024-7">
      <stop
         offset="0"
         stop-color="#fcaf3e"
         id="stop5020-1" />
      <stop
         offset="1"
         stop-opacity="0"
         stop-color="#fcaf3e"
         id="stop5022-1" />
    </linearGradient>
    <linearGradient
       y2="147.48"
       x2="210.52"
       gradientTransform="matrix(0.64729,0,0,0.64729,35.29,153.36)"
       y1="158.29"
       gradientUnits="userSpaceOnUse"
       x1="217.73"
       id="linearGradient5032-5">
      <stop
         offset="0"
         stop-color="#ef2929"
         id="stop5028-5" />
      <stop
         offset="1"
         stop-opacity="0"
         stop-color="#ef2929"
         id="stop5030-1" />
    </linearGradient>
    <linearGradient
       y2="132.25"
       x2="247.96"
       gradientTransform="matrix(0.64729,0,0,0.64729,35.29,153.36)"
       y1="138.01"
       gradientUnits="userSpaceOnUse"
       x1="249.28"
       id="linearGradient5040-8">
      <stop
         offset="0"
         stop-color="#ad7fa8"
         id="stop5036-2" />
      <stop
         offset="1"
         stop-opacity="0"
         stop-color="#ad7fa8"
         id="stop5038-4" />
    </linearGradient>
    <linearGradient
       x1="86.423"
       x2="72.172"
       y1="156.55"
       gradientUnits="userSpaceOnUse"
       y2="149.16"
       id="linearGradient2845-9">
      <stop
         offset="0"
         stop-color="#f57900"
         id="stop2841-4" />
      <stop
         offset="1"
         stop-opacity="0"
         stop-color="#f57900"
         id="stop2843-8" />
    </linearGradient>
    <linearGradient
       y2="71.67"
       x2="207.88"
       gradientTransform="matrix(0.51163,0,0,0.51163,63.091,180.33)"
       y1="368.09"
       gradientUnits="userSpaceOnUse"
       x1="281.98"
       id="linearGradient2783-7">
      <stop
         offset="0"
         stop-color="#e9b96e"
         id="stop2779-4" />
      <stop
         offset="1"
         stop-color="#eeeeec"
         id="stop2781-0" />
    </linearGradient>
    <linearGradient
       inkscape:collect="always"
       xlink:href="#linearGradient2783-7"
       id="linearGradient3284"
       gradientUnits="userSpaceOnUse"
       gradientTransform="matrix(0.00709595,-0.53128977,0.48392654,0.00646335,114.8384,582.47226)"
       x1="281.98"
       y1="368.09"
       x2="207.88"
       y2="71.67" />
    <linearGradient
       inkscape:collect="always"
       xlink:href="#linearGradient5072-2"
       id="linearGradient3287"
       gradientUnits="userSpaceOnUse"
       gradientTransform="matrix(0.64729,0,0,0.64729,-108.25169,-72.937115)"
       x1="274.06"
       y1="244.83"
       x2="261.44"
       y2="225.45" />
    <linearGradient
       inkscape:collect="always"
       xlink:href="#linearGradient5064-6"
       id="linearGradient3289"
       gradientUnits="userSpaceOnUse"
       gradientTransform="matrix(0.64729,0,0,0.64729,-106.14186,-71.8822)"
       x1="245.59"
       y1="258.65"
       x2="219.97"
       y2="255.19" />
    <linearGradient
       inkscape:collect="always"
       xlink:href="#linearGradient5048-5"
       id="linearGradient3291"
       gradientUnits="userSpaceOnUse"
       gradientTransform="matrix(0.64729,0,0,0.64729,-106.14186,-71.8822)"
       x1="205.11"
       y1="238.06"
       x2="187.08"
       y2="234.03" />
    <linearGradient
       inkscape:collect="always"
       xlink:href="#linearGradient2845-9"
       id="linearGradient3293"
       gradientUnits="userSpaceOnUse"
       gradientTransform="matrix(0.44918,0,0,0.45729,-15.73186,-18.7822)"
       x1="86.423"
       y1="156.55"
       x2="72.172"
       y2="149.16" />
    <linearGradient
       inkscape:collect="always"
       xlink:href="#linearGradient5024-7"
       id="linearGradient3295"
       gradientUnits="userSpaceOnUse"
       gradientTransform="matrix(0.64729,0,0,0.64729,-106.14186,-71.8822)"
       x1="196.1"
       y1="195.7"
       x2="187.22"
       y2="189.48" />
    <linearGradient
       inkscape:collect="always"
       xlink:href="#linearGradient5032-5"
       id="linearGradient3297"
       gradientUnits="userSpaceOnUse"
       gradientTransform="matrix(0.64729,0,0,0.64729,-92.427961,-78.739149)"
       x1="217.73"
       y1="158.29"
       x2="210.52"
       y2="147.48" />
    <linearGradient
       inkscape:collect="always"
       xlink:href="#linearGradient2783-7"
       id="linearGradient3303"
       gradientUnits="userSpaceOnUse"
       gradientTransform="matrix(0.00709595,-0.53128977,0.48392654,0.00646335,114.8384,582.47226)"
       x1="281.98"
       y1="368.09"
       x2="207.88"
       y2="71.67" />
  </defs>
  <sodipodi:namedview
     id="base"
     bordercolor="#666666"
     inkscape:pageshadow="2"
     inkscape:window-width="1920"
     pagecolor="#ffffff"
     inkscape:zoom="0.60494213"
     inkscape:window-x="-8"
     borderopacity="1.0"
     inkscape:current-layer="g3401"
     inkscape:cx="479.93161"
     inkscape:cy="486.11445"
     inkscape:window-y="-8"
     inkscape:window-height="1017"
     inkscape:pageopacity="0.0"
     showgrid="false"
     inkscape:window-maximized="1" />
  <g
     id="g3051"
     transform="translate(0,347.202)">
    <g
       id="g3121">
      <g
         id="g3191"
         transform="matrix(0.03303651,2.5165133,-2.4735206,0.03361074,1024.1818,-362.46052)">
        <g
           id="g3261">
          <g
             id="g3331"
             transform="translate(-8.3844852,1.7782505)">
            <g
               id="g3401">
              <g
                 id="g3471"
                 transform="matrix(0.97916942,0.0114657,-0.0111862,0.98646296,13.556044,-2.3433683)"
                 inkscape:export-filename="C:\Users\Francisco\Desktop\CrazyWords (Varios)\level2_bg.png"
                 inkscape:export-xdpi="89.781006"
                 inkscape:export-ydpi="89.781006">
                <path
                   d="M 312.41,420.35 V 1.27 c 0,-1.504 -197.2,-0.737 -212.94,-0.737 H 2.827 c -4.302,0 -1.921,42.753 -1.921,47.665 v 280.18 87.827 c 0,5.54 0.784,4.147 6.446,4.147 h 42.227 c 87.601,-0.01 175.22,-0.01 262.83,-0.01"
                   style="fill:#fadca5"
                   id="path3"
                   inkscape:connector-curvature="0" />
                <path
                   d="m 40.227,0.649 c -1.297,64.726 11.514,127.24 45.711,182.49 28.526,-54.403 33.676,-122.48 40.282,-182.49 -6.734,-1.885 -4.785,7.773 -5.132,12.293 -0.532,6.921 -1.218,13.826 -1.99,20.724 -1.532,13.695 -3.452,27.305 -5.833,40.877 -4.883,27.835 -12.047,54.21 -27.327,78.16 C 68.91,135.063 59.102,106.574 54.182,83.037 50.93,67.481 48.42,52.227 46.333,36.47 45.375,29.284 47.205,-0.68 40.222,0.652"
                   style="fill:#d59758"
                   id="path5"
                   inkscape:connector-curvature="0" />
                <path
                   d="m 48.939,0.649 c 1.945,44.94 8.018,93.585 35.806,130.27 29.033,-31.93 29.565,-89.682 32.225,-130.09 -4.323,0.343 -2.979,19.745 -3.359,25.003 -0.824,11.375 -2.191,22.612 -4.004,33.869 -3.655,22.691 -10.75,43.066 -24.264,61.674 C 70.352,109.845 63.49,85.286 59.675,67.68 57.852,59.281 52.336,1.368 48.936,0.644"
                   style="fill:#d59758"
                   id="path7"
                   inkscape:connector-curvature="0" />
                <path
                   d="m 53.654,0.829 c 2.234,39.149 9.77,77.365 31.688,110.4 11.47,-10.694 15.77,-31.442 18.57,-46.181 4.055,-21.34 6.388,-42.592 8.283,-64.22 -0.955,-0.06 -1.909,-0.12 -2.864,-0.179 C 110.555,36.448 101,71.622 85.341,103.469 74.841,88.349 68.983,70.175 63.837,52.709 61.751,45.624 56.991,1.109 53.655,0.828"
                   style="fill:#d59758"
                   id="path9"
                   inkscape:connector-curvature="0" />
                <path
                   d="M 66.066,0.649 C 64.764,25.04 73.631,48.271 84.745,69.456 93.526,47.497 99.471,24.35 99.783,0.649 H 66.066"
                   style="fill:#d59758"
                   id="path11"
                   inkscape:connector-curvature="0" />
                <path
                   d="m 30.38,0.471 c 2.86,42.706 6.538,85.394 16.268,127.19 2.878,12.367 6.094,24.467 9.612,36.669 2.347,8.139 8.396,15.345 11.678,23.306 8.49,20.596 13.673,41.734 18.001,63.533 2.896,-41.899 20.466,-78.002 30.316,-118.1 5.297,-21.563 9.666,-43.486 12.47,-65.518 1.615,-12.687 2.827,-25.263 3.822,-38.017 0.482,-6.177 -1.844,-29.07 3.521,-28.708 -1.528,31.79 -3.129,63.889 -7.827,95.401 -2.415,16.2 -4.396,32.732 -8.751,48.553 -4.289,15.582 -10.97,30.071 -15.211,45.665 -18.633,68.506 -13.321,140.92 -13.75,211.12 -0.038,6.163 -0.075,12.326 -0.113,18.489 -11.782,3.063 -6.828,-22.957 -6.948,-30.076 -0.41,-24.347 -0.819,-48.692 -1.229,-73.038 -0.47,-27.918 0.986,-55.794 -6.352,-82.958 -8.272,-30.623 -21.756,-59.3 -29.875,-89.97 C 38.176,114.422 32.009,83.484 29.589,52.929 28.203,35.422 27.35,18.099 26.858,0.543 26.233,0.53 31.28,0.626 30.379,0.483"
                   style="fill:#d59758"
                   id="path13"
                   inkscape:connector-curvature="0" />
                <path
                   d="M 68.036,420.35 C 70.799,353.031 65.682,285.77 52.595,219.75 46.567,189.336 29.34,163.221 22.459,133.117 14.836,99.766 11.66,66.47 10.385,32.347 9.991,21.81 10.484,11.191 10.568,0.647 4.4,0.196 7.099,13.543 7.179,18.58 c 0.118,7.356 0.362,14.718 0.787,22.063 1.017,17.591 2.747,35.033 4.825,52.528 3.713,31.256 12.238,59.745 22.738,89.07 23.671,66.11 22.738,133.82 25.661,203.16 0.253,5.98 -3.115,38.3 6.846,34.95"
                   style="fill:#d59758"
                   id="path15"
                   inkscape:connector-curvature="0" />
                <path
                   d="M 55.444,420.05 C 56.427,371.302 54.01,321.998 48.477,273.57 45.785,250.004 42.926,226.165 36.709,203.233 33.198,190.284 29.998,178.335 24.449,166.173 18.477,153.083 12.317,145.718 2.391,135.099 c -0.146,4.571 -1.13,10.558 0.895,13.308 3.491,4.738 10.016,7.999 13.83,13.666 6.988,10.386 10.122,23.368 13.586,35.231 7.459,25.546 10.212,52.172 13.414,78.499 2.822,23.207 4.695,46.985 5.256,70.344 0.354,14.715 0.707,29.431 1.061,44.146 0.128,5.35 -3.14,32.15 5.011,29.75"
                   style="fill:#d59758"
                   id="path17"
                   inkscape:connector-curvature="0" />
                <path
                   d="m 0.84,162.55 c 16.838,5.833 23.555,36.236 27.332,51.202 5.293,20.975 8.641,42.698 10.817,64.201 4.781,47.229 5.662,94.673 7.564,142.1 -5.228,0.442 -3.369,-16.445 -3.569,-20.537 -0.803,-16.463 -1.607,-32.926 -2.41,-49.39 -1.048,-21.473 -1.792,-42.972 -3.703,-64.39 C 34.838,262.96 30.817,240.531 24.874,218.467 22.048,207.977 17.814,198.335 12.369,188.986 9.453,183.981 5.556,180.542 1.402,176.47 -0.701,174.42 0.925,165.48 0.84,162.56"
                   style="fill:#d59758"
                   id="path19"
                   inkscape:connector-curvature="0" />
                <path
                   d="M 32.051,420.05 C 36.272,383.273 35.35,346.173 33.662,309.29 32.176,276.843 32.516,220.212 0.9,201.93 c -2.631,8.788 7.084,12.692 11.48,20.353 4.769,8.312 7.081,17.697 9.708,26.833 5.476,19.045 6.418,39.822 7.573,59.495 1.086,18.498 0.46,36.913 -0.395,55.42 -0.664,14.364 1.743,45.007 -9.15,56.015 3.978,0.01 7.956,0.01 11.935,0.01"
                   style="fill:#d59758"
                   id="path21"
                   inkscape:connector-curvature="0" />
                <path
                   d="m 0.84,229.63 c 19.314,22.854 18.064,64.732 18.759,92.779 0.714,28.819 4.155,61.751 -7.667,88.849 -2.717,6.229 -11.621,14.779 -11.033,2.832 0.306,-6.231 5.369,-14.117 6.917,-20.339 3.76,-15.109 7.199,-31.067 7.412,-46.713 0.479,-35.229 -4.711,-67.039 -14.227,-100.87 -1.368,-4.87 -0.013,-11.5 -0.161,-16.54"
                   style="fill:#d59758"
                   id="path23"
                   inkscape:connector-curvature="0" />
                <path
                   d="M 1.377,148.23 C 1.218,128.24 1.059,108.25 0.9,88.254 c 0.663,23.498 5.653,46.966 16.113,68.03 -3.304,-4.97 -9.269,-10.42 -15.636,-8.05"
                   style="fill:#d59758"
                   id="path25"
                   inkscape:connector-curvature="0" />
                <path
                   d="m 0.84,282.5 c 8.351,31.915 8.551,65.806 0.06,97.569 0,-32.47 0.814,-65.22 -0.06,-97.57"
                   style="fill:#d59758"
                   id="path27"
                   inkscape:connector-curvature="0" />
                <path
                   d="m 99.306,420.05 c 0.125,-31.92 -0.506,-63.832 0.035,-95.753 0.561,-33.07 -0.75,-68.018 6.152,-100.49 6.235,-29.334 21.835,-56.117 26.694,-86.2 5.04,-31.2 7.398,-63.266 9.931,-94.75 1.126,-13.993 2.195,-28.012 1.11,-42.028 h 2.804 c -1.748,62.487 -5.695,124.13 -21.035,184.82 -3.334,13.188 -10.427,26.866 -12.114,40.013 -2.077,16.187 -3.503,32.401 -4.82,48.665 -2.631,32.489 -3.044,65.184 -2.862,97.76 0.089,15.941 0.655,31.858 1.147,47.792 -2.16,0.06 -4.93,0.65 -7.034,0.18"
                   style="fill:#d59758"
                   id="path29"
                   inkscape:connector-curvature="0" />
                <path
                   d="m 111.84,419.88 c 1.088,-62.513 -4.792,-129.34 9.872,-190.63 3.302,-13.802 10.857,-26.515 14.083,-39.791 3.667,-15.097 7.041,-30.251 9.981,-45.508 6.482,-33.635 4.087,-68.557 4.383,-102.64 0.085,-9.87 0.171,-19.741 0.256,-29.611 0.003,-0.365 -0.426,-14.896 2.661,-11.042 1.437,1.793 0,10.676 0,12.855 V 46.97 c 0,33.012 1.762,65.732 -3.67,98.345 -2.518,15.116 -4.935,30.664 -9.817,45.233 -4.689,13.994 -10.623,26.922 -13.826,41.478 -6.303,28.644 -4.783,59.825 -5.804,88.976 l -2.436,69.519 c -0.17,5.17 3.02,32.18 -5.67,29.36"
                   style="fill:#d59758"
                   id="path31"
                   inkscape:connector-curvature="0" />
                <path
                   d="m 202.31,253.86 c -1.617,-11.254 -3.957,-22.119 -8.234,-32.703 -4.073,-10.08 -11.243,-18.759 -15.124,-28.76 -8.388,-21.614 -12.526,-45.346 -15.133,-68.333 -2.378,29.518 -13.387,59.385 -24.544,86.65 -12.104,29.578 -11.679,66.929 -13.591,98.466 -1.985,32.72 -2.873,65.536 -3.01,98.314 -0.016,3.68 -0.03,7.358 -0.03,11.038 0,2.455 3.669,2.204 3.768,-0.665 0.383,-11.214 0.767,-22.428 1.15,-33.642 0.584,-17.065 1.513,-34.105 2.404,-51.158 1.7,-32.533 4.479,-65.457 10.133,-97.56 4.939,-28.05 19.927,-54.321 21.931,-82.801 2.819,21.425 10.078,39 20.318,57.678 11.728,21.39 16.48,40.858 17.881,64.942 1.406,24.184 1.451,48.864 -0.843,72.997 -2.354,24.771 -11.047,47.415 -13.188,72.031 6.594,1.508 4.89,-14.396 5.321,-19.144 0.492,-5.419 2.764,-11.189 3.871,-16.543 2.952,-14.267 5.177,-28.708 6.623,-43.206 2.91,-29.3 2.3,-58.32 0.29,-87.62"
                   style="fill:#d59758"
                   id="path33"
                   inkscape:connector-curvature="0" />
                <path
                   d="m 136.07,419.88 c -1.225,-38.192 -3.211,-76.794 -0.103,-114.93 2.836,-34.799 3.964,-81.994 25.166,-111.06 30.304,26.141 34.45,70.483 33.78,107.67 -0.355,19.718 -1.207,39.585 -3.465,59.185 -1.194,10.367 -2.687,20.683 -6.013,30.592 -2.2,6.556 -0.951,30.081 -8.188,29.026 3.653,-35.073 12.248,-68.558 13.697,-104.04 1.568,-38.395 -6.691,-74.16 -28.916,-105.43 -14.95,31.075 -19.377,68.022 -21.045,102.05 -0.874,17.829 -1.815,35.646 -2.441,53.485 -0.598,17.043 -3.024,36.759 1.226,53.45 -1.26,0.01 -2.49,0.01 -3.72,0.01"
                   style="fill:#d59758"
                   id="path35"
                   inkscape:connector-curvature="0" />
                <path
                   d="m 162.92,138.38 c -0.496,-45.911 -0.994,-91.822 -1.491,-137.73 6.021,-0.853 3.21,14.333 3.242,18.643 0.121,16.265 0.242,32.531 0.364,48.796 0.189,25.52 0.38,51.04 0.57,76.56 -0.88,-2.08 -1.92,-4.14 -2.68,-6.27"
                   style="fill:#d59758"
                   id="path37"
                   inkscape:connector-curvature="0" />
                <path
                   d="m 177.96,0.649 c 0,31.739 0.215,63.489 1.15,95.215 0.878,29.752 -2.007,65.433 10.731,92.871 26.651,57.408 23.081,125.56 16.914,187.17 -1.496,14.941 -4.812,29.403 -8.327,43.966 18.254,2.54 15.63,-166.79 11.578,-186.07 -2.85,-13.556 -8.349,-27.966 -13.488,-40.818 -4.781,-11.956 -6.527,-24.501 -8.295,-37.298 -4.638,-33.585 -3.071,-68.35 -3.828,-102.16 -0.291,-13.007 -0.582,-26.014 -0.874,-39.02 -0.11,-4.999 2.81,-16.701 -5.56,-13.861"
                   style="fill:#d59758"
                   id="path39"
                   inkscape:connector-curvature="0" />
                <path
                   d="m 197.95,0.829 c 0.751,64.992 -3.5,131.08 9.495,195.07 6.127,30.165 10.566,59.179 11.363,90.124 0.783,30.457 -1.239,61.569 -4.245,91.876 -1.408,14.198 -2.995,28.235 -7.364,41.858 7.738,2.379 9.813,-30.347 10.555,-36.523 1.969,-16.395 3.507,-32.764 4.297,-49.261 1.649,-34.463 0.15,-68.528 -2.623,-102.89 -2.236,-27.719 -7.743,-55.116 -10.131,-82.802 -2.824,-32.749 -4.84,-65.533 -6.418,-98.364 -0.405,-8.418 -0.645,-16.854 -0.87,-25.279 -0.16,-5.615 2.87,-24.73 -4.07,-23.818"
                   style="fill:#d59758"
                   id="path41"
                   inkscape:connector-curvature="0" />
                <path
                   d="m 229.1,0.829 c 0.192,66.266 -0.824,132.48 0.76,198.75 1.528,63.928 7.982,129.14 -0.031,192.88 -1.188,9.449 -2.95,18.069 -5.325,27.298 10.407,0.156 8.335,-2.677 8.793,-12.31 0.385,-8.086 0.795,-16.175 1.074,-24.266 0.564,-16.343 1.119,-32.685 1.351,-49.036 0.491,-34.736 0.402,-69.439 -0.24,-104.17 -1.351,-73.063 -1.188,-146.18 -1.768,-219.26 -0.02,-4.411 2.31,-11.988 -4.6,-9.881"
                   style="fill:#d59758"
                   id="path43"
                   inkscape:connector-curvature="0" />
                <path
                   d="m 259.6,0.649 c 1.474,31.673 1.604,63.403 -0.438,95.049 -1.998,30.961 -10.116,61.264 -11.95,92.399 -2.011,34.152 -1.449,67.691 1.143,101.79 2.351,30.927 7.327,61.152 7.735,92.328 0.169,12.884 0.007,25.554 -2.934,38.137 10.059,0 11.883,2.172 11.807,-7.888 -0.069,-9.103 -0.294,-18.189 -0.618,-27.286 -0.528,-14.813 -1.471,-29.828 -3.432,-44.524 -4.337,-32.5 -9.549,-64.25 -10.892,-97.104 -1.35,-33.001 0.546,-66.211 5.393,-98.868 4.714,-31.759 5.942,-64.077 7.832,-96.118 0.518,-8.786 1.047,-17.578 1.33,-26.375 0.18,-5.702 4.17,-24.272 -4.97,-21.548"
                   style="fill:#d59758"
                   id="path45"
                   inkscape:connector-curvature="0" />
                <path
                   d="m 270.34,0.649 c 0.007,32.105 -0.509,64.313 -3.163,96.316 -2.659,32.056 -9.704,64.137 -12.286,96.492 -2.508,31.414 -0.76,60.125 6.991,90.578 7.546,29.647 13.733,59.917 12.691,90.642 -0.517,15.225 -1.032,30.45 -1.549,45.675 7.008,1.687 4.688,-7.051 4.834,-11.876 0.241,-7.99 0.416,-15.98 0.577,-23.973 0.299,-14.836 0.033,-29.647 -0.517,-44.476 -0.592,-15.966 -1.609,-31.877 -3.311,-47.763 -1.626,-15.185 -7.009,-29.005 -9.104,-44.004 -8.879,-63.561 4.433,-127.73 7.849,-191.28 0.4,-7.509 4.86,-57.875 -3.01,-56.341"
                   style="fill:#d59758"
                   id="path47"
                   inkscape:connector-curvature="0" />
                <path
                   d="m 147.4,419.88 c -0.347,-28.311 -3.094,-55.986 -1.908,-84.418 1.37,-32.86 0.973,-69.812 16.529,-99.504 18.223,27.655 20.92,62.676 20.836,94.797 -0.076,29.922 -12.898,59.389 -10.095,89.302 -10.971,0.878 -7.479,-6.071 -7.698,-15.517 -0.145,-6.264 -0.751,-12.624 0.029,-18.855 1.626,-12.979 7.252,-23.876 10.444,-36.313 7.966,-31.033 3.077,-59.983 -12.622,-87.456 -11.761,23.427 -15.034,53.971 -12.888,79.815 0.978,11.769 3.659,23.698 2.613,35.509 -1.279,14.434 -1.882,27.916 -1.541,42.64 -1.22,0.01 -2.45,0.01 -3.69,0.01"
                   style="fill:#d59758"
                   id="path49"
                   inkscape:connector-curvature="0" />
                <path
                   d="m 163.82,286.98 c -12.651,21.849 -8.012,50.884 -3.581,74.296 12.46,-23.73 12.38,-49.61 3.58,-74.3"
                   style="fill:#d59758"
                   id="path51"
                   inkscape:connector-curvature="0" />
                <path
                   d="m 156.66,420.05 c -0.055,-12.428 -1.157,-27.157 2.686,-39.088 -0.04,6.42 2.54,39.09 -2.69,39.09"
                   style="fill:#d59758"
                   id="path53"
                   inkscape:connector-curvature="0" />
                <path
                   d="m 288.06,0.649 c 0,31.525 1.274,64.292 -2.985,95.586 -1.826,13.409 -7.804,26.616 -11.317,39.733 -4.081,15.234 -5.987,30.929 -6.658,46.644 -1.126,26.404 -0.855,61.966 9.266,86.641 11.603,28.286 10.909,55.345 11.496,85.492 0.411,21.086 0.822,42.172 1.232,63.259 0.033,1.685 1.103,4.003 3.442,2.049 1.045,-0.872 0.105,-9.589 0.114,-10.755 0.057,-7.999 0.074,-15.998 0.105,-23.997 0.12,-30.35 0.919,-61.034 -2.702,-91.194 -3.683,-30.675 -17.649,-57.476 -17.273,-89.191 0.368,-31.027 9.52,-59.513 15.462,-89.665 7.291,-36.987 3.229,-77.058 3.577,-114.6 -1.26,-0.011 -2.51,-0.011 -3.77,-0.011"
                   style="fill:#d59758"
                   id="path55"
                   inkscape:connector-curvature="0" />
                <path
                   d="m 296.3,121.38 c -9.368,24.022 -16.252,49.104 -18.199,74.851 -1.619,21.413 4.811,55.042 20.885,70.162 12.35,-47.14 17.31,-99.63 -2.68,-145.01"
                   style="fill:#d59758"
                   id="path57"
                   inkscape:connector-curvature="0" />
                <path
                   d="m 297.31,0.829 c -0.006,27.143 0.326,54.297 1.262,81.423 0.415,12.023 0.181,24.874 4.228,36.258 4.173,11.738 9.65,22.906 9.728,35.687 -0.097,-11.875 2.18,-26.638 -1.016,-37.894 -2.346,-8.266 -6.053,-14.39 -6.461,-23.408 -0.822,-18.188 -1.645,-36.375 -2.467,-54.563 -0.24,-5.466 1.64,-39.055 -5.27,-37.51"
                   style="fill:#d59758"
                   id="path59"
                   inkscape:connector-curvature="0" />
                <path
                   d="m 312.53,230.88 c -13.567,60.465 -15.615,122.9 -14.52,184.81 0.049,2.788 2.583,7.113 2.583,2.724 0,-3.532 -0.016,-7.063 0,-10.595 0.038,-8.624 0.2,-17.241 0.386,-25.862 0.32,-14.859 0.642,-29.809 1.8,-44.63 1.275,-16.329 1.983,-33.252 5.929,-49.218 4.386,-17.746 3.623,-35.017 3.789,-53.484 l 0.03,-3.75"
                   style="fill:#d59758"
                   id="path61"
                   inkscape:connector-curvature="0" />
                <path
                   d="m 304.17,420.17 c 0.018,-28.947 -3.21,-65.8 8.355,-92.917 -0.195,16.139 -0.141,32.128 -1.701,48.189 -0.823,8.469 -1.531,16.95 -2.305,25.424 -0.41,4.53 0.41,19.48 -4.35,19.31"
                   style="fill:#d59758"
                   id="path63"
                   inkscape:connector-curvature="0" />
                <path
                   d="m 307.93,0.649 c 0.015,26.568 -3.146,58.378 4.476,84.024 -0.033,-15.505 -0.066,-31.01 -0.1,-46.516 -0.01,-5.701 3.87,-39.556 -4.38,-37.508"
                   style="fill:#d59758"
                   id="path65"
                   inkscape:connector-curvature="0" />
                <path
                   d="m 46.492,128.12 c 9.152,41.312 31.205,77.329 39.446,119.17 2.654,-22.596 6.622,-45.19 13.779,-66.813 6.863,-20.732 14.86,-39.875 19.64,-61.489 -6.609,28.183 -17.106,55.104 -23.692,83.128 -7.545,32.108 -9.13,63.059 -9.13,95.899 -1.406,-28.784 -2.658,-57.765 -10.682,-85.604 -8.225,-28.54 -26.464,-54.07 -29.364,-84.3"
                   style="fill:#8b5c29"
                   id="path67"
                   inkscape:connector-curvature="0" />
                <path
                   d="m 53.296,78.766 c 4.482,26.655 16.792,50.593 32.225,72.447 15.957,-14.075 21.559,-45.027 25.252,-64.886 5.237,-28.164 10.461,-56.99 11.091,-85.678 0.358,0.06 0.715,0.12 1.073,0.179 -1.729,26.695 -3.305,55.811 -10.679,81.627 -7.294,25.534 -9.416,50.049 -26.737,71.562 C 65.867,135.487 59.04,104.027 53.304,78.773"
                   style="fill:#8b5c29"
                   id="path69"
                   inkscape:connector-curvature="0" />
                <path
                   d="m 85.342,121.38 c 12.51,-15.284 18.277,-34.867 22.856,-53.709 -2.177,16.881 -8.186,35.847 -18.33,49.679 -6.663,9.086 -7.996,4.233 -12.832,-4.717 -5.142,-9.516 -9.275,-19.443 -13.357,-29.447 4.761,12.218 10.6,30.327 21.661,38.197"
                   style="fill:#8b5c29"
                   id="path71"
                   inkscape:connector-curvature="0" />
                <path
                   d="M 85.342,103.47 C 95.617,86.809 101.852,68.577 105.035,49.344 102.647,69.734 95.224,88.35 84.745,105.858 75.67,91.014 69.633,74.446 65.226,57.698 c 5.09,15.88 11.501,31.461 20.111,45.77"
                   style="fill:#8b5c29"
                   id="path73"
                   inkscape:connector-curvature="0" />
                <path
                   d="M 66.066,0.649 C 66.05,25.187 72.212,48.428 84.745,69.456 87.627,64.13 74.882,45.528 72.74,38.82 68.784,26.427 67.377,13.531 66.066,0.649"
                   style="fill:#8b5c29"
                   id="path75"
                   inkscape:connector-curvature="0" />
                <path
                   d="m 84.745,69.456 c 5.871,-13.333 11.407,-27.708 12.353,-42.37 -0.604,6.95 -2.255,13.705 -4.297,20.36 -1.902,6.201 -9.14,15.864 -8.056,22.01"
                   style="fill:#8b5c29"
                   id="path77"
                   inkscape:connector-curvature="0" />
                <path
                   d="m 131.89,135.7 c -1.897,17.039 -5.73,33.985 -11.976,49.96 -5.616,14.366 -14.261,28.754 -16.071,44.329 5.96,-32.5 22.25,-61.43 28.05,-94.29"
                   style="fill:#8b5c29"
                   id="path79"
                   inkscape:connector-curvature="0" />
                <path
                   d="m 145.62,147.63 c -3.178,13.706 -4.405,30.31 -10.413,43.026 -5.503,11.646 -11.857,24.641 -13.457,37.537 1.99,-11.424 4.494,-25.116 10.852,-34.988 7.88,-12.24 9.31,-31.52 13.02,-45.58"
                   style="fill:#8b5c29"
                   id="path81"
                   inkscape:connector-curvature="0" />
                <path
                   d="m 162.32,134.86 c -3.357,17.959 -7.555,35.95 -13.463,53.246 -5.604,16.4 -15.302,31.149 -15.958,49.04 5.62,-35.17 25.8,-66.76 29.42,-102.29"
                   style="fill:#8b5c29"
                   id="path83"
                   inkscape:connector-curvature="0" />
                <path
                   d="m 146.39,231.54 c 2.161,-7.786 7.979,-37.237 17.663,-33.956 12.258,4.154 20.249,31.793 23.752,42.369 -3.161,-14.532 -9.546,-33.087 -21.892,-42.444 -7.396,-5.605 -8.854,1.006 -12.244,8.609 -3.61,8.1 -5.51,16.96 -7.28,25.42"
                   style="fill:#8b5c29"
                   id="path85"
                   inkscape:connector-curvature="0" />
                <path
                   d="m 167.87,147.99 c 2.188,19.133 6.269,39.321 17.546,55.32 -11.23,-15.2 -14.23,-37.21 -17.55,-55.32"
                   style="fill:#8b5c29"
                   id="path87"
                   inkscape:connector-curvature="0" />
                <path
                   d="m 189.36,161.54 c 0.69,27.924 18.39,50.63 21.126,78.414 -3.49,-27.48 -17.97,-51.12 -21.13,-78.41"
                   style="fill:#8b5c29"
                   id="path89"
                   inkscape:connector-curvature="0" />
                <path
                   d="m 162.03,235.89 c 9.537,15.434 14.457,32.929 17.783,50.605 -2.582,-16.945 -8.981,-32.961 -17.484,-47.741 -7.153,12.44 -9.596,27.89 -12.354,41.773 1.97,-14.39 3.53,-32.4 12.05,-44.64"
                   style="fill:#8b5c29"
                   id="path91"
                   inkscape:connector-curvature="0" />
                <path
                   d="m 163.82,286.98 c 4.707,8.8 7.575,19.347 6.862,29.36 -0.174,-9.407 -2.268,-18.99 -7.161,-27.093 -1.866,4.265 -3.702,8.589 -4.773,13.129 0.8,-5.23 1.81,-11.13 5.07,-15.4"
                   style="fill:#8b5c29"
                   id="path93"
                   inkscape:connector-curvature="0" />
                <path
                   d="m 207.08,115.41 c 1.729,49.362 13.496,97.468 14.919,146.8 -2.78,-49.36 -10.58,-97.63 -14.92,-146.8"
                   style="fill:#8b5c29"
                   id="path95"
                   inkscape:connector-curvature="0" />
                <path
                   d="m 257.21,111.83 c -5.435,30.946 -9.864,62.257 -10.741,93.691 -0.35,-31.52 4.02,-62.98 10.74,-93.69"
                   style="fill:#8b5c29"
                   id="path97"
                   inkscape:connector-curvature="0" />
                <path
                   d="m 265.56,108.84 c -5.988,33.167 -10.667,66.552 -11.937,100.26 2.3,-33.52 7.29,-67 11.94,-100.26"
                   style="fill:#8b5c29"
                   id="path99"
                   inkscape:connector-curvature="0" />
                <path
                   d="m 287.64,65.876 c 0.189,43.907 -20.533,83.786 -20.288,128.3 0.942,-21.996 2.688,-44.695 7.593,-66.199 4.76,-20.85 12.48,-40.428 12.7,-62.104"
                   style="fill:#8b5c29"
                   id="path101"
                   inkscape:connector-curvature="0" />
                <path
                   d="m 296.3,121.38 c -7.588,18.202 -12.779,37.231 -15.813,56.692 4.469,-15.837 7.842,-34.333 15.516,-48.934 11.966,12.304 12.432,35.388 13.725,51.321 -2.11,-16.63 -1.85,-46.09 -13.44,-59.08"
                   style="fill:#8b5c29"
                   id="path103"
                   inkscape:connector-curvature="0" />
                <path
                   d="m 304.95,91.537 c -2.072,8.369 1.513,16.693 6.563,23.273 -4.37,-6.89 -6.43,-15.17 -6.56,-23.273"
                   style="fill:#8b5c29"
                   id="path105"
                   inkscape:connector-curvature="0" />
                <path
                   d="m 0.84,229.63 c 8.605,8.013 11.269,24.612 13.075,35.638 2.793,17.045 4.451,34.036 5.782,51.251 -0.785,-28.395 0.364,-68.004 -19.096,-90.708 -0.074,-0.81 0.449,4.9 0.239,3.82"
                   style="fill:#8b5c29"
                   id="path107"
                   inkscape:connector-curvature="0" />
                <path
                   d="m 0.84,201.94 c 21.867,6.891 25.917,44.147 29.003,62.66 -1.539,-24.14 -6.864,-52.832 -29.838,-65.047 -0.084,-0.21 0.976,2.74 0.835,2.39"
                   style="fill:#8b5c29"
                   id="path109"
                   inkscape:connector-curvature="0" />
                <path
                   d="m 0.84,162.55 c 27.241,14.923 31.036,65.004 34.97,91.901 -3.59,-33.238 -9.329,-72.157 -34.612,-96.078 -0.064,1.36 -0.434,2.94 -0.358,4.18"
                   style="fill:#8b5c29"
                   id="path111"
                   inkscape:connector-curvature="0" />
                <path
                   d="m 7.703,153 c -4.022,-7.038 -5.576,-15.19 -6.624,-23.155 0.041,7.45 -4.4,24.4 6.624,23.16"
                   style="fill:#faf2e3"
                   id="path113"
                   inkscape:connector-curvature="0" />
                <path
                   d="m 2.332,104.37 c 2.355,14.861 4.011,29.38 12.055,42.311 8.167,13.13 14.86,26.48 18.739,41.535 -3.617,-15.542 -9.298,-30.78 -18.817,-43.675 -8.189,-11.1 -9.15,-26.97 -11.977,-40.17"
                   style="fill:#8b5c29"
                   id="path115"
                   inkscape:connector-curvature="0" />
                <path
                   d="m 176.64,345.16 c -4.596,14.679 -11.582,28.195 -11.934,43.861 1.69,-15.28 8.35,-29 11.93,-43.86"
                   style="fill:#8b5c29"
                   id="path117"
                   inkscape:connector-curvature="0" />
                <path
                   d="m 150.98,352.32 c 1.149,6.955 2.684,14.443 1.79,21.483 3.47,-6.21 0.29,-15.25 -1.79,-21.48"
                   style="fill:#8b5c29"
                   id="path119"
                   inkscape:connector-curvature="0" />
                <path
                   d="m 186.19,366.05 c -1.66,13.375 -6.716,25.983 -7.758,39.386 3.17,-12.67 7.75,-26.26 7.76,-39.39"
                   style="fill:#8b5c29"
                   id="path121"
                   inkscape:connector-curvature="0" />
                <path
                   d="m 198.43,419.88 c 4.749,-19.582 8.975,-39.617 9.846,-59.797 -2.699,18.871 -3.562,43.154 -12.532,60.273 0.89,-0.16 1.78,-0.31 2.68,-0.47"
                   style="fill:#8b5c29"
                   id="path123"
                   inkscape:connector-curvature="0" />
                <path
                   d="m 207.2,419.76 c 6.126,-22.89 9.138,-46.763 9.431,-70.417 -1.609,23.69 -4.403,47.653 -11.339,70.417 h 1.91"
                   style="fill:#8b5c29"
                   id="path125"
                   inkscape:connector-curvature="0" />
                <path
                   d="m 224.5,419.76 c 10.212,-33.346 8.945,-70.583 8.237,-105.03 0.661,17.277 0.701,34.862 -0.846,52.096 -0.834,9.292 -1.406,18.793 -3.178,27.967 -0.88,4.61 -6.29,24.62 -4.21,24.96"
                   style="fill:#8b5c29"
                   id="path127"
                   inkscape:connector-curvature="0" />
                <path
                   d="m 312.53,327.26 c -5.163,15.436 -6.828,31.745 -7.4,47.921 0.733,-16.018 0.359,-36.656 7.577,-51.322 -0.06,1.13 -0.12,2.26 -0.18,3.4"
                   style="fill:#8b5c29"
                   id="path129"
                   inkscape:connector-curvature="0" />
                <path
                   d="m 312.53,230.88 c -5.432,23.153 -9.144,45.859 -10.98,69.522 1.65,-23.29 11.23,-46.3 10.98,-69.52"
                   style="fill:#8b5c29"
                   id="path131"
                   inkscape:connector-curvature="0" />
                <path
                   d="m 276.07,238.7 c 3.875,15.703 11.643,31.16 12.771,47.384 -3.44,-15.37 -13.44,-31.42 -12.77,-47.38"
                   style="fill:#8b5c29"
                   id="path133"
                   inkscape:connector-curvature="0" />
                <path
                   d="m 1.139,412.18 c 9.94,-15.303 11.788,-35.581 13.188,-53.292 -0.58,8.807 -1.841,17.704 -3.759,26.319 -1.943,8.72 -8.78,18.73 -9.429,26.97"
                   style="fill:#8b5c29"
                   id="path135"
                   inkscape:connector-curvature="0" />
                <path
                   d="m 20.116,420.05 c 10.538,-12.874 8.388,-37.65 8.533,-53.229 -0.021,13.588 2.076,44.273 -10.562,53.11 0.676,0.04 1.352,0.08 2.029,0.12"
                   style="fill:#8b5c29"
                   id="path137"
                   inkscape:connector-curvature="0" />
              </g>
              <g
                 transform="matrix(0.00671798,-0.50299074,0.51910268,0.00693317,-5.5773325,257.13421)"
                 inkscape:label="Layer 1"
                 id="layer1"
                 inkscape:export-filename="C:\Users\Francisco\Desktop\CrazyWords (Varios)\level2_bg.png"
                 inkscape:export-xdpi="89.781006"
                 inkscape:export-ydpi="89.781006">
                <g
                   id="g3197">
                  <path
                     d="m 113.57,530.22 -2.86,-62.86 4.29,-106.43 27.14,-77.14 11.43,-60 -4.28,-59.28 162.85,-22.86 100,8.57 67.15,-9.29 8.57,6.43 4.28,37.86 -6.43,45.71 -16.42,105.72 -10.72,78.57 -2.86,76.43 L 345,548.79 124.29,547.36 113.57,530.22 z"
                     style="fill:#e8e4d4;fill-rule:evenodd"
                     id="path2205"
                     inkscape:connector-curvature="0" />
                  <path
                     d="m 83.158,587.54 c 0.641,-1.15 0.282,-2.28 -1.24,-3.92 -1.178,-1.27 -4.525,-6.51 -7.438,-11.64 -5.801,-10.22 -6.052,-8.14 -0.552,4.59 1.883,4.35 3.27,8.07 3.084,8.26 -0.691,0.69 -11.549,-21.4 -13.567,-27.6 -2.706,-8.31 -2.8,-19.92 -0.208,-25.62 6.356,-14 35.206,-23.93 81.453,-28.04 16.01,-1.42 23.88,-1.52 55.9,-0.7 38.1,0.98 77.64,0.3 97.27,-1.67 25.21,-2.52 52.98,-8.4 78.26,-16.55 7.52,-2.42 13.83,-4.24 14.04,-4.03 0.2,0.2 -2.93,2.24 -6.97,4.52 -4.03,2.29 -6.66,3.93 -5.83,3.64 0.82,-0.28 10.05,-3.31 20.5,-6.72 21.98,-7.17 28.02,-9.67 34.39,-14.22 2.53,-1.82 7.91,-5.08 11.95,-7.25 l 7.34,-3.94 3.47,4 c 1.91,2.2 4.63,5.68 6.03,7.73 1.41,2.05 2.89,3.53 3.28,3.29 0.97,-0.6 9.52,17.58 11.48,24.41 1.85,6.46 1.95,11.32 0.42,21.78 -1.35,9.24 -4.5,16.02 -9.26,19.95 -1.91,1.57 -14.19,8.31 -27.29,14.97 -24.82,12.62 -37.94,17.65 -54.81,21 -11.72,2.33 -44.49,2.34 -78,0.02 -33.94,-2.35 -92.14,-4.65 -117.52,-4.65 -37.21,0 -69.44,5.64 -96.905,16.97 -8.447,3.48 -10.616,3.81 -9.277,1.42 z m 276.94,-16.41 c 14.85,-1.13 24,-2.82 35.74,-6.6 7.54,-2.42 15.73,-6.12 11.02,-4.97 -1.1,0.27 -5.76,1.43 -10.36,2.59 -16.52,4.14 -37.32,7.16 -53.14,7.69 -17.1,0.59 -33.93,-0.73 -74.41,-5.83 -26.95,-3.39 -58.78,-4.68 -74.09,-3 -7.64,0.84 -6.2,0.91 9.5,0.48 22.4,-0.61 39.11,0.53 76.24,5.22 23.81,3.01 38.13,4.21 62.76,5.28 1.92,0.08 9.46,-0.3 16.74,-0.86 z m -256.56,-52.67 c -0.72,-0.28 -1.58,-0.25 -1.91,0.08 -0.33,0.34 0.26,0.57 1.31,0.53 1.17,-0.05 1.4,-0.29 0.6,-0.61 z m 22.82,-2.89 10.5,-1.35 -9,0.54 c -4.95,0.29 -11.93,1.16 -15.5,1.92 -7.33,1.55 -5.42,1.4 14,-1.11 z m 19.25,-2.13 c -1.24,-0.24 -3.27,-0.24 -4.5,0 -1.24,0.24 -0.23,0.44 2.25,0.44 2.47,0 3.48,-0.2 2.25,-0.44 z m 15.5,-1.01 c -1.52,-0.23 -3.99,-0.23 -5.5,0 -1.52,0.23 -0.28,0.42 2.75,0.42 3.02,0 4.26,-0.19 2.75,-0.42 z m 162.94,-4.78 c 4.35,-0.83 11.94,-2.78 16.86,-4.34 9.82,-3.11 34.76,-13.19 34.15,-13.8 -0.21,-0.21 -3.6,0.95 -7.54,2.57 -8.29,3.42 -29.81,10.09 -45.66,14.15 -11.88,3.05 -10.64,3.85 2.19,1.42 z m -213.56,-31.5 c -0.75,-11.83 -1.59,-39.51 -1.86,-61.52 -0.65,-51.85 -0.59,-52.17 16.99,-94.48 10.93,-26.34 14.18,-35.46 17.24,-48.44 4.79,-20.37 8.38,-47.59 8.58,-65.06 l 0.1,-9 1.46,5 c 2.44,8.32 2.91,34.67 0.9,50.45 -2.39,18.75 -5.07,28.45 -14.56,52.59 -14.76,37.56 -18.32,49.83 -21.86,75.46 -3.62,26.16 -4.39,38.01 -5.01,77.5 l -0.61,39 -1.37,-21.5 z m 346.62,-29.58 c -1.32,-1.33 -0.81,-33.61 0.79,-49.53 2.41,-24.12 3.64,-32.39 20.95,-140.89 4.08,-25.58 8.11,-52.2 8.96,-59.17 2.01,-16.44 2.05,-39.85 0.08,-46.38 -1.84,-6.12 -1.35,-6.89 0.79,-1.22 3.78,10.02 4.86,16.59 5.4,32.88 0.84,25.52 -0.76,37.95 -12.72,98.39 -11.86,59.94 -18.08,102.5 -22.29,152.34 -0.67,7.88 -1.55,14 -1.96,13.58 z m -320.46,-264.9 c -0.98,-2.18 -3.92,-6.4 -6.51,-9.37 -6.21,-7.1 -8.7,-12.48 -9.44,-20.4 -0.82,-8.78 1.18,-22.04 4.32,-28.57 3.14,-6.54 9.81,-13.08 17.1,-16.77 l 5.49,-2.78 12.12,1.73 c 37.61,5.36 68.82,8.74 99.12,10.74 28.89,1.91 90.47,-0.2 134.9,-4.62 24.4,-2.43 38.45,-1.69 56.45,2.98 12.98,3.36 32.16,11.37 32.16,13.43 0,0.48 1.35,1.42 3,2.11 1.65,0.68 3,1.46 3,1.73 0,1.66 -6.97,13.09 -10.28,16.84 -3.25,3.7 -4.07,5.5 -4.65,10.21 -0.8,6.55 -2.68,10.57 -6.73,14.4 -5.4,5.11 -10.55,5.73 -31.84,3.84 -18.5,-1.64 -49.04,-5.34 -47.73,-5.78 0.68,-0.23 9.45,0.36 19.48,1.3 23.93,2.25 44.97,2.36 49.84,0.25 3.47,-1.51 6.95,-5.88 8.35,-10.5 l 0.67,-2.21 -4.46,2.49 c -8.92,4.99 -33.09,7.4 -74.22,7.42 -16.63,0.01 -23.17,0.37 -26.5,1.47 -8.55,2.81 -20.82,3.67 -65.43,4.56 -45.48,0.91 -72.39,2.56 -120.5,7.35 -13.48,1.35 -27.07,2.37 -30.21,2.29 -5.63,-0.16 -5.72,-0.21 -7.5,-4.14 z m 94.44,-8.22 c -0.97,-0.25 -2.32,-0.23 -3,0.04 -0.68,0.28 0.12,0.48 1.77,0.46 1.65,-0.02 2.2,-0.24 1.23,-0.5 z m 16.52,-0.96 c -0.69,-0.28 -1.82,-0.28 -2.5,0 -0.69,0.27 -0.13,0.5 1.25,0.5 1.37,0 1.93,-0.23 1.25,-0.5 z"
                     style="fill:#bbbda7"
                     id="path2188"
                     inkscape:connector-curvature="0" />
                  <path
                     d="m 83.357,588.44 c 0,-2.01 5.892,-6.37 13.004,-9.63 21.499,-9.85 40.069,-13.1 89.999,-15.74 31.7,-1.68 54.71,-0.77 88.5,3.48 38.07,4.78 48.04,5.59 69,5.59 19.93,0 32.65,-1.51 47.5,-5.62 9.12,-2.53 25.32,-9.54 29.5,-12.76 1.83,-1.42 1.85,-1.55 0.2,-1.58 -3.88,-0.07 -7.9,-3.22 -10.04,-7.85 -3.82,-8.26 -2.6,-31.7 2.75,-53.18 1.35,-5.43 1.37,-5.32 1.48,9.5 0.21,26.53 4.11,42.38 11.35,46.12 4.64,2.4 11.93,1.4 20.76,-2.85 9.92,-4.77 16.5,-9.93 19.25,-15.07 2.12,-3.96 2.24,-5.33 2.17,-23.7 -0.05,-14.71 -0.46,-20.85 -1.66,-25 -0.88,-3.03 -1.46,-5.64 -1.29,-5.81 0.48,-0.48 5.29,12.64 7.07,19.31 2.09,7.83 3.02,25.79 1.6,31.01 -1.72,6.33 -5.97,11.97 -11.54,15.29 -2.8,1.68 -14.33,7.72 -25.6,13.43 -20.57,10.42 -36.48,16.54 -50.38,19.37 -11.68,2.38 -41.11,2.82 -68.62,1.04 -44.09,-2.86 -108.32,-5.66 -129.5,-5.64 -38.18,0.04 -72.76,6.9 -104.25,20.67 -0.69,0.3 -1.253,0.13 -1.253,-0.38 z M 68,567.19 c -11.01,-24.08 -8.16,-38.74 9.225,-47.46 14.031,-7.04 27.905,-10.77 53.485,-14.37 10.55,-1.49 19.7,-1.67 69.59,-1.41 85.06,0.44 109.5,-1.36 148.94,-10.95 6.8,-1.66 17.81,-4.75 24.46,-6.88 6.65,-2.13 12.22,-3.75 12.37,-3.59 0.55,0.55 -17.27,8.6 -24.71,11.18 -25.7,8.88 -56.84,16.64 -74.64,18.59 -9.43,1.04 -15.53,0.94 -39.97,-0.62 -32.03,-2.04 -63.9,-1.72 -103.2,1.03 -52.831,3.7 -72.18,11.61 -76.242,31.17 -1.364,6.57 -0.102,17.22 3.013,25.41 3.036,8 1.767,6.85 -2.321,-2.1 z m 369.75,-54.6 c 5.44,-1.87 10.1,-3.6 10.35,-3.86 0.85,-0.84 -2.85,-16.87 -4.75,-20.59 -1.03,-2.03 -3.56,-5.16 -5.61,-6.96 -3.15,-2.76 -3.35,-3.16 -1.31,-2.56 6.69,1.99 12.51,7.91 15.75,16.03 1.25,3.13 4.28,16.73 3.83,17.18 -0.41,0.41 -25,4.33 -26.65,4.24 -0.83,-0.04 2.95,-1.6 8.39,-3.48 z M 109.97,450.65 c -0.49,-10.45 -0.94,-32.28 -1,-48.5 -0.15,-38.93 0.41,-41.53 17.89,-83.5 4.81,-11.55 10.08,-24.83 11.71,-29.5 6.25,-17.94 11.53,-47.23 12.47,-69.25 0.34,-8.11 0.97,-14.75 1.39,-14.75 2.6,0 2.92,32.88 0.5,50.27 -2.41,17.25 -5.43,27.93 -14.04,49.73 -16.68,42.19 -20.03,54.85 -23.94,90.5 -1.47,13.37 -3.4,45.82 -3.87,65 -0.16,6.54 -0.47,3.81 -1.11,-10 z m 346.92,-11.84 c -1.01,-2.29 0.07,-26.41 2.06,-45.66 2.06,-20 3.91,-32.47 16.43,-111 13.47,-84.48 13.9,-87.63 14.7,-108 0.71,-18.32 1.48,-17.75 3.31,2.49 1.99,21.88 -0.56,42.84 -12.52,103.01 -11.41,57.38 -18.17,103.22 -22.34,151.5 -0.55,6.3 -1.1,8.88 -1.64,7.66 z M 141.84,181.78 c -7.22,-4.88 -15.2,-13.78 -18.16,-20.23 -2.41,-5.27 -2.53,-6.31 -2.06,-17.25 0.29,-6.65 1.22,-13.91 2.16,-16.92 2.46,-7.77 8.75,-14.89 17.09,-19.33 l 6.99,-3.71 12.5,1.87 c 55.11,8.27 109.23,12.65 142.5,11.55 28.97,-0.96 69.62,-3.4 87.5,-5.25 28.13,-2.91 43.52,-1.92 64.44,4.15 8.85,2.56 23.96,8.42 23.34,9.04 -0.18,0.18 -5.49,-0.99 -11.8,-2.6 -19.73,-5.02 -46.49,-8.91 -61.48,-8.93 -6.75,-0.01 -17.91,1.25 -39.01,4.39 -5.49,0.82 -18.09,1.94 -27.99,2.5 -67.51,3.78 -106.68,1.69 -177.8,-9.48 -10.28,-1.62 -10.98,-1.61 -14.76,0.09 -5.73,2.59 -12.3,10.07 -14.51,16.53 -2.59,7.55 -2.67,26.35 -0.16,33.45 2.32,6.52 7.72,13.8 12.68,17.08 l 3.95,2.62 21.8,-2.11 c 39.96,-3.87 98.45,-7.25 157.3,-9.08 39.64,-1.23 37.98,-1.23 35.66,0.12 -5.11,2.97 -17.98,3.98 -61.66,4.86 -45.5,0.91 -76.5,2.8 -123,7.52 -13.48,1.37 -25.86,2.49 -27.52,2.49 -1.77,0 -5.07,-1.39 -8,-3.37 z m 299.02,-4.81 c -16.66,-1.16 -17.26,-1.51 -2.88,-1.67 7.22,-0.08 14.53,-0.43 16.24,-0.77 6.64,-1.33 11.57,-9.38 12.74,-20.81 l 0.7,-6.88 -3.9,0.62 c -2.15,0.34 -8.85,1.52 -14.9,2.62 -11.6,2.11 -18.69,2.47 -22,1.1 -3,-1.23 -1.49,-1.57 22.36,-5.07 15.89,-2.33 21.66,-2.84 22.5,-2 0.67,0.67 1.13,4.7 1.13,9.83 0.01,11.06 -2.55,17.02 -8.84,20.61 -5.19,2.96 -9.29,3.38 -23.15,2.42 z m -24.77,-2.48 c 0.68,-0.27 2.03,-0.29 3,-0.04 0.97,0.26 0.42,0.48 -1.23,0.5 -1.65,0.02 -2.45,-0.18 -1.77,-0.46 z m -8.98,-1 c 0.68,-0.28 1.81,-0.28 2.5,0 0.68,0.27 0.12,0.5 -1.25,0.5 -1.38,0 -1.94,-0.23 -1.25,-0.5 z m 82.33,-17.76 c -0.05,-1.05 0.19,-1.64 0.52,-1.31 0.33,0.33 0.37,1.19 0.08,1.92 -0.32,0.79 -0.56,0.56 -0.6,-0.61 z m -83.83,-8.27 c -2.7,-6.21 -2.89,-12.43 -0.51,-16.45 2.04,-3.47 9.81,-7.51 16.26,-8.47 l 4.5,-0.67 -5,4.04 c -8.47,6.83 -11.74,12.27 -12.48,20.74 l -0.52,6 -2.25,-5.19 z"
                     style="fill:#333333"
                     id="path2182"
                     inkscape:connector-curvature="0" />
                </g>
              </g>
              <g
                 id="g3299"
                 transform="matrix(1.0252274,-1.7273292e-4,-1.72733e-4,1.038158,16.003727,-139.06561)"
                 inkscape:export-filename="C:\Users\Francisco\Desktop\CrazyWords (Varios)\level2_bg.png"
                 inkscape:export-xdpi="89.781006"
                 inkscape:export-ydpi="89.781006">
                <path
                   style="fill:#2e3436;fill-rule:evenodd;stroke:#2e3436;stroke-width:0.5071007px"
                   inkscape:connector-curvature="0"
                   d="m 162.89251,426.57849 c -0.0577,2.90733 0.12795,6.71114 0.60204,11.58855 6.15672,62.47159 65.86256,56.62192 65.86256,56.62192 99.35803,-10.43005 -37.67368,-178.9677 -33.71748,-91.98312 3.65897,80.19848 -31.97702,-10.512 -32.74712,23.77265 z m 31.02595,15.84814 c -0.0195,-0.66497 0.0741,-1.29728 0.2994,-1.87588 1.16732,-3.11063 5.43087,-3.59377 9.51273,-1.09852 4.08187,2.49526 6.43346,7.04463 5.26629,10.14487 -1.17677,3.1105 -5.44046,3.60402 -9.51287,1.10889 -3.32183,-2.02811 -5.49018,-5.42217 -5.56555,-8.27936 z"
                   id="path2775" />
                <path
                   inkscape:connector-curvature="0"
                   style="fill:url(#linearGradient3303);fill-rule:evenodd;stroke:#2e3436;stroke-width:0.5071007px"
                   d="m 163.35559,431.92031 c -0.0672,2.90722 0.11849,6.71101 0.60204,11.58856 6.15672,62.47159 65.85311,56.62178 65.85311,56.62178 99.35801,-10.43004 -37.67369,-178.96769 -33.70803,-91.98299 3.6495,80.19836 -31.97717,-10.50162 -32.74712,23.77265 z m 31.02595,15.84814 c -0.0195,-0.66496 0.0741,-1.29727 0.2994,-1.87588 1.16731,-3.11063 5.43086,-3.59376 9.51273,-1.09851 4.07241,2.49513 6.43345,7.04462 5.25683,10.14474 -1.16732,3.11063 -5.43101,3.60415 -9.51287,1.10889 -3.31237,-2.02799 -5.49018,-5.42217 -5.55609,-8.27924 z"
                   id="path2176" />
              </g>
            </g>
          </g>
        </g>
      </g>
    </g>
  </g>
  <metadata
     id="metadata72">
    <rdf:RDF>
      <cc:Work>
        <dc:format>image/svg+xml</dc:format>
        <dc:type
           rdf:resource="http://purl.org/dc/dcmitype/StillImage" />
        <cc:license
           rdf:resource="http://creativecommons.org/licenses/publicdomain/" />
        <dc:publisher>
          <cc:Agent
             rdf:about="http://openclipart.org/">
            <dc:title>Openclipart</dc:title>
          </cc:Agent>
        </dc:publisher>
        <dc:title></dc:title>
      </cc:Work>
      <cc:License
         rdf:about="http://creativecommons.org/licenses/publicdomain/">
        <cc:permits
           rdf:resource="http://creativecommons.org/ns#Reproduction" />
        <cc:permits
           rdf:resource="http://creativecommons.org/ns#Distribution" />
        <cc:permits
           rdf:resource="http://creativecommons.org/ns#DerivativeWorks" />
      </cc:License>
    </rdf:RDF>
  </metadata>
</svg>
