<?xml version="1.0" encoding="UTF-8" standalone="no"?>
<!-- Created with Inkscape (http://www.inkscape.org/) -->

<svg
   xmlns:dc="http://purl.org/dc/elements/1.1/"
   xmlns:cc="http://creativecommons.org/ns#"
   xmlns:rdf="http://www.w3.org/1999/02/22-rdf-syntax-ns#"
   xmlns:svg="http://www.w3.org/2000/svg"
   xmlns="http://www.w3.org/2000/svg"
   xmlns:sodipodi="http://sodipodi.sourceforge.net/DTD/sodipodi-0.dtd"
   xmlns:inkscape="http://www.inkscape.org/namespaces/inkscape"
   width="500"
   height="90"
   id="svg2"
   version="1.1"
   inkscape:version="0.48.4 r"
   sodipodi:docname="Documento nuevo 1">
  <defs
     id="defs4" />
  <sodipodi:namedview
     id="base"
     pagecolor="#ffffff"
     bordercolor="#666666"
     borderopacity="1.0"
     inkscape:pageopacity="0.0"
     inkscape:pageshadow="2"
     inkscape:zoom="1.979899"
     inkscape:cx="281.84523"
     inkscape:cy="-26.584334"
     inkscape:document-units="px"
     inkscape:current-layer="layer1"
     showgrid="false"
     inkscape:window-width="1366"
     inkscape:window-height="705"
     inkscape:window-x="-8"
     inkscape:window-y="-8"
     inkscape:window-maximized="1" />
  <metadata
     id="metadata7">
    <rdf:RDF>
      <cc:Work
         rdf:about="">
        <dc:format>image/svg+xml</dc:format>
        <dc:type
           rdf:resource="http://purl.org/dc/dcmitype/StillImage" />
        <dc:title></dc:title>
      </cc:Work>
    </rdf:RDF>
  </metadata>
  <g
     inkscape:label="Capa 1"
     inkscape:groupmode="layer"
     id="layer1"
     transform="translate(0,-962.36218)">
    <text
       xml:space="preserve"
       style="font-size:90px;font-style:normal;font-variant:normal;font-weight:normal;font-stretch:normal;line-height:125%;letter-spacing:0px;word-spacing:0px;fill:#000000;fill-opacity:1;stroke:none;font-family:Comica BD;-inkscape-font-specification:Comica BD"
       x="19.192892"
       y="1023.5728"
       id="text2985"
       sodipodi:linespacing="125%"
       inkscape:export-filename="C:\Users\Jonathan\Desktop\Settings_title1.png"
       inkscape:export-xdpi="89"
       inkscape:export-ydpi="89"><tspan
         sodipodi:role="line"
         id="tspan2987"
         x="19.192892"
         y="1023.5728">S</tspan><tspan
         sodipodi:role="line"
         x="19.192892"
         y="1136.0728"
         id="tspan3384" /></text>
    <text
       xml:space="preserve"
       style="font-size:90px;font-style:normal;font-variant:normal;font-weight:normal;font-stretch:normal;line-height:125%;letter-spacing:0px;word-spacing:0px;fill:#000000;fill-opacity:1;stroke:none;font-family:Comica BD;-inkscape-font-specification:Comica BD"
       x="78.791901"
       y="1026.0983"
       id="text3386"
       sodipodi:linespacing="125%"
       inkscape:export-filename="C:\Users\Jonathan\Desktop\Settings_title1.png"
       inkscape:export-xdpi="89"
       inkscape:export-ydpi="89"><tspan
         sodipodi:role="line"
         id="tspan3388"
         x="78.791901"
         y="1026.0983">e</tspan></text>
    <text
       xml:space="preserve"
       style="font-size:90px;font-style:normal;font-variant:normal;font-weight:normal;font-stretch:normal;line-height:125%;letter-spacing:0px;word-spacing:0px;fill:#000000;fill-opacity:1;stroke:none;font-family:Comica BD;-inkscape-font-specification:Comica BD"
       x="135.86552"
       y="1025.088"
       id="text3390"
       sodipodi:linespacing="125%"
       inkscape:export-filename="C:\Users\Jonathan\Desktop\Settings_title1.png"
       inkscape:export-xdpi="89"
       inkscape:export-ydpi="89"><tspan
         sodipodi:role="line"
         id="tspan3392"
         x="135.86552"
         y="1025.088">t</tspan></text>
    <text
       xml:space="preserve"
       style="font-size:90px;font-style:normal;font-variant:normal;font-weight:normal;font-stretch:normal;line-height:125%;letter-spacing:0px;word-spacing:0px;fill:#000000;fill-opacity:1;stroke:none;font-family:Comica BD;-inkscape-font-specification:Comica BD"
       x="190.91882"
       y="1024.0779"
       id="text3394"
       sodipodi:linespacing="125%"
       inkscape:export-filename="C:\Users\Jonathan\Desktop\Settings_title1.png"
       inkscape:export-xdpi="89"
       inkscape:export-ydpi="89"><tspan
         sodipodi:role="line"
         id="tspan3396"
         x="190.91882"
         y="1024.0779">t</tspan></text>
    <text
       xml:space="preserve"
       style="font-size:90px;font-style:normal;font-variant:normal;font-weight:normal;font-stretch:normal;line-height:125%;letter-spacing:0px;word-spacing:0px;fill:#000000;fill-opacity:1;stroke:none;font-family:Comica BD;-inkscape-font-specification:Comica BD"
       x="241.42645"
       y="1033.6743"
       id="text3398"
       sodipodi:linespacing="125%"
       inkscape:export-filename="C:\Users\Jonathan\Desktop\Settings_title1.png"
       inkscape:export-xdpi="89"
       inkscape:export-ydpi="89"><tspan
         sodipodi:role="line"
         id="tspan3400"
         x="241.42645"
         y="1033.6743">i</tspan></text>
    <text
       xml:space="preserve"
       style="font-size:90px;font-style:normal;font-variant:normal;font-weight:normal;font-stretch:normal;line-height:125%;letter-spacing:0px;word-spacing:0px;fill:#000000;fill-opacity:1;stroke:none;font-family:Comica BD;-inkscape-font-specification:Comica BD"
       x="284.86301"
       y="1030.1388"
       id="text3402"
       sodipodi:linespacing="125%"
       inkscape:export-filename="C:\Users\Jonathan\Desktop\Settings_title1.png"
       inkscape:export-xdpi="89"
       inkscape:export-ydpi="89"><tspan
         sodipodi:role="line"
         id="tspan3404"
         x="284.86301"
         y="1030.1388">n</tspan></text>
    <text
       xml:space="preserve"
       style="font-size:90px;font-style:normal;font-variant:normal;font-weight:normal;font-stretch:normal;line-height:125%;letter-spacing:0px;word-spacing:0px;fill:#000000;fill-opacity:1;stroke:none;font-family:Comica BD;-inkscape-font-specification:Comica BD"
       x="344.9671"
       y="1025.088"
       id="text3406"
       sodipodi:linespacing="125%"
       inkscape:export-filename="C:\Users\Jonathan\Desktop\Settings_title1.png"
       inkscape:export-xdpi="89"
       inkscape:export-ydpi="89"><tspan
         sodipodi:role="line"
         id="tspan3408"
         x="344.9671"
         y="1025.088">g</tspan></text>
    <text
       xml:space="preserve"
       style="font-size:90px;font-style:normal;font-variant:normal;font-weight:normal;font-stretch:normal;line-height:125%;letter-spacing:0px;word-spacing:0px;fill:#000000;fill-opacity:1;stroke:none;font-family:Comica BD;-inkscape-font-specification:Comica BD"
       x="395.9798"
       y="1028.1185"
       id="text3410"
       sodipodi:linespacing="125%"
       inkscape:export-filename="C:\Users\Jonathan\Desktop\Settings_title1.png"
       inkscape:export-xdpi="89"
       inkscape:export-ydpi="89"><tspan
         sodipodi:role="line"
         id="tspan3412"
         x="395.9798"
         y="1028.1185">s</tspan></text>
    <text
       xml:space="preserve"
       style="font-size:90px;font-style:normal;font-variant:normal;font-weight:normal;font-stretch:normal;line-height:125%;letter-spacing:0px;word-spacing:0px;fill:#000000;fill-opacity:1;stroke:none;font-family:Comica BD;-inkscape-font-specification:Comica BD"
       x="-332.91995"
       y="1075.2007"
       id="text2985-4"
       sodipodi:linespacing="125%"
       transform="matrix(0.94827236,-0.31745792,0.31745792,0.94827236,0,0)"
       inkscape:export-filename="C:\Users\Jonathan\Desktop\Settings_title2.png"
       inkscape:export-xdpi="89"
       inkscape:export-ydpi="89"><tspan
         sodipodi:role="line"
         id="tspan2987-7"
         x="-332.91995"
         y="1075.2007">S</tspan><tspan
         sodipodi:role="line"
         x="-332.91995"
         y="1187.7007"
         id="tspan3384-7" /></text>
    <text
       xml:space="preserve"
       style="font-size:90px;font-style:normal;font-variant:normal;font-weight:normal;font-stretch:normal;line-height:125%;letter-spacing:0px;word-spacing:0px;fill:#000000;fill-opacity:1;stroke:none;font-family:Comica BD;-inkscape-font-specification:Comica BD"
       x="-437.13177"
       y="1046.4048"
       id="text3386-0"
       sodipodi:linespacing="125%"
       transform="matrix(0.89135375,-0.45330839,0.45330839,0.89135375,0,0)"
       inkscape:export-filename="C:\Users\Jonathan\Desktop\Settings_title2.png"
       inkscape:export-xdpi="89"
       inkscape:export-ydpi="89"><tspan
         sodipodi:role="line"
         id="tspan3388-0"
         x="-437.13177"
         y="1046.4048">e</tspan></text>
    <text
       xml:space="preserve"
       style="font-size:90px;font-style:normal;font-variant:normal;font-weight:normal;font-stretch:normal;line-height:125%;letter-spacing:0px;word-spacing:0px;fill:#000000;fill-opacity:1;stroke:none;font-family:Comica BD;-inkscape-font-specification:Comica BD"
       x="-242.02251"
       y="1108.375"
       id="text3390-0"
       sodipodi:linespacing="125%"
       transform="matrix(0.94218024,-0.33510654,0.33510654,0.94218024,0,0)"
       inkscape:export-filename="C:\Users\Jonathan\Desktop\Settings_title2.png"
       inkscape:export-xdpi="89"
       inkscape:export-ydpi="89"><tspan
         sodipodi:role="line"
         id="tspan3392-1"
         x="-242.02251"
         y="1108.375">t</tspan></text>
    <text
       xml:space="preserve"
       style="font-size:90px;font-style:normal;font-variant:normal;font-weight:normal;font-stretch:normal;line-height:125%;letter-spacing:0px;word-spacing:0px;fill:#000000;fill-opacity:1;stroke:none;font-family:Comica BD;-inkscape-font-specification:Comica BD"
       x="-192.55458"
       y="1125.4421"
       id="text3394-2"
       sodipodi:linespacing="125%"
       transform="matrix(0.94134643,-0.33744169,0.33744169,0.94134643,0,0)"
       inkscape:export-filename="C:\Users\Jonathan\Desktop\Settings_title2.png"
       inkscape:export-xdpi="89"
       inkscape:export-ydpi="89"><tspan
         sodipodi:role="line"
         id="tspan3396-5"
         x="-192.55458"
         y="1125.4421">t</tspan></text>
    <text
       xml:space="preserve"
       style="font-size:90px;font-style:normal;font-variant:normal;font-weight:normal;font-stretch:normal;line-height:125%;letter-spacing:0px;word-spacing:0px;fill:#000000;fill-opacity:1;stroke:none;font-family:Comica BD;-inkscape-font-specification:Comica BD"
       x="-200.08157"
       y="1142.7551"
       id="text3398-0"
       sodipodi:linespacing="125%"
       transform="matrix(0.92394715,-0.38252015,0.38252015,0.92394715,0,0)"
       inkscape:export-filename="C:\Users\Jonathan\Desktop\Settings_title2.png"
       inkscape:export-xdpi="89"
       inkscape:export-ydpi="89"><tspan
         sodipodi:role="line"
         id="tspan3400-0"
         x="-200.08157"
         y="1142.7551">i</tspan></text>
    <text
       xml:space="preserve"
       style="font-size:90px;font-style:normal;font-variant:normal;font-weight:normal;font-stretch:normal;line-height:125%;letter-spacing:0px;word-spacing:0px;fill:#000000;fill-opacity:1;stroke:none;font-family:Comica BD;-inkscape-font-specification:Comica BD"
       x="-156.99605"
       y="1158.8561"
       id="text3402-8"
       sodipodi:linespacing="125%"
       transform="matrix(0.92588941,-0.37779465,0.37779465,0.92588941,0,0)"
       inkscape:export-filename="C:\Users\Jonathan\Desktop\Settings_title2.png"
       inkscape:export-xdpi="89"
       inkscape:export-ydpi="89"><tspan
         sodipodi:role="line"
         id="tspan3404-4"
         x="-156.99605"
         y="1158.8561">n</tspan></text>
    <text
       xml:space="preserve"
       style="font-size:90px;font-style:normal;font-variant:normal;font-weight:normal;font-stretch:normal;line-height:125%;letter-spacing:0px;word-spacing:0px;fill:#000000;fill-opacity:1;stroke:none;font-family:Comica BD;-inkscape-font-specification:Comica BD"
       x="-124.06663"
       y="1173.3385"
       id="text3406-8"
       sodipodi:linespacing="125%"
       transform="matrix(0.91890737,-0.39447338,0.39447338,0.91890737,0,0)"
       inkscape:export-filename="C:\Users\Jonathan\Desktop\Settings_title2.png"
       inkscape:export-xdpi="89"
       inkscape:export-ydpi="89"><tspan
         sodipodi:role="line"
         id="tspan3408-2"
         x="-124.06663"
         y="1173.3385">g</tspan></text>
    <text
       xml:space="preserve"
       style="font-size:90px;font-style:normal;font-variant:normal;font-weight:normal;font-stretch:normal;line-height:125%;letter-spacing:0px;word-spacing:0px;fill:#000000;fill-opacity:1;stroke:none;font-family:Comica BD;-inkscape-font-specification:Comica BD"
       x="-196.87016"
       y="1184.6727"
       id="text3410-1"
       sodipodi:linespacing="125%"
       transform="matrix(0.87341423,-0.48697801,0.48697801,0.87341423,0,0)"
       inkscape:export-filename="C:\Users\Jonathan\Desktop\Settings_title2.png"
       inkscape:export-xdpi="89"
       inkscape:export-ydpi="89"><tspan
         sodipodi:role="line"
         id="tspan3412-6"
         x="-196.87016"
         y="1184.6727">s</tspan></text>
    <text
       xml:space="preserve"
       style="font-size:90px;font-style:normal;font-variant:normal;font-weight:normal;font-stretch:normal;line-height:125%;letter-spacing:0px;word-spacing:0px;fill:#000000;fill-opacity:1;stroke:none;font-family:Comica BD;-inkscape-font-specification:Comica BD"
       x="374.21368"
       y="845.68665"
       id="text2985-0"
       sodipodi:linespacing="125%"
       transform="matrix(0.92103337,0.38948366,-0.38948366,0.92103337,0,0)"
       inkscape:export-filename="C:\Users\Jonathan\Desktop\Settings_title0.png"
       inkscape:export-xdpi="89"
       inkscape:export-ydpi="89"><tspan
         sodipodi:role="line"
         id="tspan2987-9"
         x="374.21368"
         y="845.68665">S</tspan><tspan
         sodipodi:role="line"
         x="374.21368"
         y="958.18658"
         id="tspan3384-9" /></text>
    <text
       xml:space="preserve"
       style="font-size:90px;font-style:normal;font-variant:normal;font-weight:normal;font-stretch:normal;line-height:125%;letter-spacing:0px;word-spacing:0px;fill:#000000;fill-opacity:1;stroke:none;font-family:Comica BD;-inkscape-font-specification:Comica BD"
       x="713.6792"
       y="584.13812"
       id="text3386-9"
       sodipodi:linespacing="125%"
       transform="matrix(0.69870569,0.71540922,-0.71540922,0.69870569,0,0)"
       inkscape:export-filename="C:\Users\Jonathan\Desktop\Settings_title0.png"
       inkscape:export-xdpi="89"
       inkscape:export-ydpi="89"><tspan
         sodipodi:role="line"
         id="tspan3388-9"
         x="713.6792"
         y="584.13812">e</tspan></text>
    <text
       xml:space="preserve"
       style="font-size:90px;font-style:normal;font-variant:normal;font-weight:normal;font-stretch:normal;line-height:125%;letter-spacing:0px;word-spacing:0px;fill:#000000;fill-opacity:1;stroke:none;font-family:Comica BD;-inkscape-font-specification:Comica BD"
       x="400.73547"
       y="849.63507"
       id="text3390-8"
       sodipodi:linespacing="125%"
       transform="matrix(0.95536623,0.29542404,-0.29542404,0.95536623,0,0)"
       inkscape:export-filename="C:\Users\Jonathan\Desktop\Settings_title0.png"
       inkscape:export-xdpi="89"
       inkscape:export-ydpi="89"><tspan
         sodipodi:role="line"
         id="tspan3392-2"
         x="400.73547"
         y="849.63507">t</tspan></text>
    <text
       xml:space="preserve"
       style="font-size:90px;font-style:normal;font-variant:normal;font-weight:normal;font-stretch:normal;line-height:125%;letter-spacing:0px;word-spacing:0px;fill:#000000;fill-opacity:1;stroke:none;font-family:Comica BD;-inkscape-font-specification:Comica BD"
       x="540.06787"
       y="775.27179"
       id="text3394-3"
       sodipodi:linespacing="125%"
       transform="matrix(0.9167733,0.39940796,-0.39940796,0.9167733,0,0)"
       inkscape:export-filename="C:\Users\Jonathan\Desktop\Settings_title0.png"
       inkscape:export-xdpi="89"
       inkscape:export-ydpi="89"><tspan
         sodipodi:role="line"
         id="tspan3396-1"
         x="540.06787"
         y="775.27179">t</tspan></text>
    <text
       xml:space="preserve"
       style="font-size:90px;font-style:normal;font-variant:normal;font-weight:normal;font-stretch:normal;line-height:125%;letter-spacing:0px;word-spacing:0px;fill:#000000;fill-opacity:1;stroke:none;font-family:Comica BD;-inkscape-font-specification:Comica BD"
       x="520.22192"
       y="816.479"
       id="text3398-4"
       sodipodi:linespacing="125%"
       transform="matrix(0.94855355,0.31661675,-0.31661675,0.94855355,0,0)"
       inkscape:export-filename="C:\Users\Jonathan\Desktop\Settings_title0.png"
       inkscape:export-xdpi="89"
       inkscape:export-ydpi="89"><tspan
         sodipodi:role="line"
         id="tspan3400-02"
         x="520.22192"
         y="816.479">i</tspan></text>
    <text
       xml:space="preserve"
       style="font-size:90px;font-style:normal;font-variant:normal;font-weight:normal;font-stretch:normal;line-height:125%;letter-spacing:0px;word-spacing:0px;fill:#000000;fill-opacity:1;stroke:none;font-family:Comica BD;-inkscape-font-specification:Comica BD"
       x="603.46198"
       y="764.56293"
       id="text3402-0"
       sodipodi:linespacing="125%"
       transform="matrix(0.93045083,0.36641677,-0.36641677,0.93045083,0,0)"
       inkscape:export-filename="C:\Users\Jonathan\Desktop\Settings_title0.png"
       inkscape:export-xdpi="89"
       inkscape:export-ydpi="89"><tspan
         sodipodi:role="line"
         id="tspan3404-9"
         x="603.46198"
         y="764.56293">n</tspan></text>
    <text
       xml:space="preserve"
       style="font-size:90px;font-style:normal;font-variant:normal;font-weight:normal;font-stretch:normal;line-height:125%;letter-spacing:0px;word-spacing:0px;fill:#000000;fill-opacity:1;stroke:none;font-family:Comica BD;-inkscape-font-specification:Comica BD"
       x="683.06952"
       y="717.42096"
       id="text3406-0"
       sodipodi:linespacing="125%"
       transform="matrix(0.91899572,0.39426751,-0.39426751,0.91899572,0,0)"
       inkscape:export-filename="C:\Users\Jonathan\Desktop\Settings_title0.png"
       inkscape:export-xdpi="89"
       inkscape:export-ydpi="89"><tspan
         sodipodi:role="line"
         id="tspan3408-3"
         x="683.06952"
         y="717.42096">g</tspan></text>
    <text
       xml:space="preserve"
       style="font-size:90px;font-style:normal;font-variant:normal;font-weight:normal;font-stretch:normal;line-height:125%;letter-spacing:0px;word-spacing:0px;fill:#000000;fill-opacity:1;stroke:none;font-family:Comica BD;-inkscape-font-specification:Comica BD"
       x="758.76862"
       y="668.13416"
       id="text3410-8"
       sodipodi:linespacing="125%"
       transform="matrix(0.90214121,0.43144088,-0.43144088,0.90214121,0,0)"
       inkscape:export-filename="C:\Users\Jonathan\Desktop\Settings_title0.png"
       inkscape:export-xdpi="89"
       inkscape:export-ydpi="89"><tspan
         sodipodi:role="line"
         id="tspan3412-5"
         x="758.76862"
         y="668.13416">s</tspan></text>
    <path
       style="fill:#ff0000;fill-opacity:1;stroke:#000000;stroke-width:0.04747717;stroke-linecap:butt;stroke-linejoin:miter;stroke-miterlimit:4;stroke-opacity:0;stroke-dasharray:none"
       d="m 27.581225,945.1764 c -3.142749,-2.20626 -10.308204,-8.06155 -10.185466,-8.32312 0.02437,-0.052 1.359216,-2.37632 2.966288,-5.16523 1.607073,-2.78891 3.051794,-5.69445 3.210491,-6.45677 0.158696,-0.76232 0.388129,-1.34391 0.509855,-1.29244 0.121722,0.0515 1.545431,1.56709 3.163798,3.36804 2.434788,2.70947 3.47004,3.50208 6.000054,4.59371 5.144319,2.21961 7.664065,1.26756 9.692424,-3.6622 2.307252,-5.60759 1.308527,-8.59755 -4.744619,-14.20431 -8.375504,-7.75786 -10.011839,-16.78277 -4.658643,-25.69391 3.224185,-5.3671 7.011234,-7.43918 12.616654,-6.90319 4.143185,0.39617 12.586584,4.47221 20.168783,9.73647 l 5.722891,3.97335 -1.483991,4.30476 c -0.816195,2.36762 -1.656012,5.14044 -1.86626,6.16182 l -0.38227,1.85706 -3.049514,-2.96631 c -5.617681,-5.4644 -11.22283,-7.40681 -13.875956,-4.80858 -3.339702,3.27061 -2.600624,7.81327 2.040197,12.53982 6.574559,6.69602 9.038242,12.29348 8.303174,18.86472 -0.171861,1.53638 -0.729246,3.77899 -1.238633,4.98356 -1.50063,3.54862 -5.518661,9.2133 -7.860036,11.0812 -2.884308,2.30103 -8.332032,4.18098 -11.464043,3.95611 -3.308458,-0.23754 -9.008805,-2.73188 -13.585174,-5.94456 z"
       id="path3519"
       inkscape:connector-curvature="0"
       inkscape:export-filename="C:\Users\Jonathan\Desktop\Settings_title0.png"
       inkscape:export-xdpi="89"
       inkscape:export-ydpi="89" />
    <path
       style="fill:#ff0000;fill-opacity:1;stroke:#000000;stroke-width:0.04747717;stroke-linecap:butt;stroke-linejoin:miter;stroke-miterlimit:4;stroke-opacity:0;stroke-dasharray:none"
       d="m 206.1343,68.699795 c -2.72216,-0.951538 -4.88343,-2.990173 -6.1857,-5.834702 -1.49071,-3.256151 -1.47664,-3.55063 0.977,-20.448341 0.8771,-6.040397 1.45931,-11.117957 1.2938,-11.283467 -0.16551,-0.16551 -1.84148,-0.06109 -3.72438,0.232055 -1.8829,0.29314 -3.51684,0.43959 -3.63099,0.325444 -0.27672,-0.276727 1.33097,-7.405382 1.85994,-8.247163 0.22855,-0.363687 1.80821,-0.925916 3.51038,-1.2494 3.01544,-0.573061 3.12025,-0.647222 4.08532,-2.890586 0.54476,-1.26634 1.37401,-3.82927 1.84277,-5.6954 0.70994,-2.826315 1.03182,-3.400309 1.9273,-3.436943 0.59126,-0.02419 3.06375,-0.195913 5.49443,-0.3816089 5.11983,-0.3911381 4.75371,-0.9512533 3.88851,5.9489009 -0.63314,5.049382 -0.62054,5.064635 4.19271,5.075554 1.8751,0.0043 3.4048,0.178198 3.39933,0.386542 -0.0337,1.28682 -1.46158,8.332349 -1.74656,8.61834 -0.19005,0.19072 -1.84602,0.460406 -3.67993,0.599302 -3.10424,0.235107 -3.35933,0.346374 -3.69564,1.612005 -0.45705,1.720033 -1.96585,16.760184 -2.11773,21.110289 l -0.11442,3.276858 2.02031,0.438831 c 4.01177,0.8714 4.0388,0.608109 -0.69148,6.735391 -4.70835,6.098872 -5.22414,6.39474 -8.90497,5.108099 z"
       id="path3521"
       inkscape:connector-curvature="0"
       transform="translate(0,962.36218)"
       inkscape:export-filename="C:\Users\Jonathan\Desktop\Settings_title1.png"
       inkscape:export-xdpi="89"
       inkscape:export-ydpi="89" />
    <path
       style="fill:#ff0000;fill-opacity:1;stroke:#000000;stroke-width:0.04747717;stroke-linecap:butt;stroke-linejoin:miter;stroke-miterlimit:4;stroke-opacity:0;stroke-dasharray:none"
       d="m 368.42609,1137.8502 c -1.50429,0.369 -4.78587,0.5885 -7.29239,0.4879 l -4.55732,-0.1829 -2.31302,-6.0672 c -1.27217,-3.337 -2.28839,-6.15 -2.25825,-6.2512 0.0301,-0.1012 2.30657,-0.052 5.05877,0.1096 5.68207,0.3334 9.09844,-0.025 10.51374,-1.1046 1.15398,-0.8798 1.44966,-3.5165 0.61291,-5.4657 -0.53735,-1.2517 -0.789,-1.3467 -2.46006,-0.9291 -5.48001,1.3694 -12.71468,0.8445 -16.30872,-1.1834 -2.16339,-1.2206 -4.79962,-4.1345 -5.75589,-6.362 -1.19526,-2.7844 -1.33597,-7.015 -0.31809,-9.5642 1.79924,-4.506 6.48629,-6.8751 13.12521,-6.6342 1.91249,0.069 3.56293,0.089 3.66765,0.044 0.10471,-0.045 -0.25187,-1.1119 -0.79239,-2.3711 -0.76313,-1.7777 -0.82472,-2.4219 -0.27559,-2.8826 3.57657,-3.0008 7.98793,-6.4971 8.12461,-6.4394 0.74317,0.3142 10.36465,21.3442 12.66495,27.6822 2.66726,7.3492 2.75299,7.7418 2.54356,11.6507 -0.24176,4.5126 -1.54938,7.513 -4.5106,10.3499 -2.40149,2.3007 -6.06202,4.2772 -9.46908,5.1129 z m -1.70347,-26.912 c 0.16546,-0.5602 -0.397,-2.279 -1.53767,-4.699 l -1.79855,-3.8158 -3.08437,1.3241 c -4.02819,1.7292 -4.69024,2.972 -3.30378,6.2017 1.43017,3.3315 3.74642,4.037 7.98479,2.4321 0.81327,-0.308 1.59609,-0.9574 1.73958,-1.4431 l 0,0 z"
       id="path3523"
       inkscape:connector-curvature="0"
       inkscape:export-filename="C:\Users\Jonathan\Desktop\Settings_title2.png"
       inkscape:export-xdpi="89"
       inkscape:export-ydpi="89" />
    <path
       style="fill:#008000;fill-opacity:1;stroke:#000000;stroke-width:0.04747717;stroke-linecap:butt;stroke-linejoin:miter;stroke-miterlimit:4;stroke-opacity:0;stroke-dasharray:none"
       d="m 85.872391,934.71932 c -2.651137,-8.59891 0.02157,-16.50852 7.927876,-23.46177 7.642553,-6.72129 14.601813,-6.45402 21.745563,0.83512 3.67357,3.74837 4.66718,5.89286 5.22757,11.28291 0.31879,3.06611 -0.3583,10.29884 -0.9585,10.23901 -0.14075,-0.014 -1.82225,-0.40193 -3.73666,-0.86202 -1.9144,-0.46008 -6.79725,-1.49148 -10.85078,-2.29199 -6.661505,-1.31555 -7.403233,-1.35039 -7.715167,-0.36237 -0.521418,1.65152 0.343054,4.60612 1.778643,6.07907 1.497614,1.53656 3.688944,2.51159 7.338974,3.26541 l 2.62882,0.54292 0.21438,4.28289 c 0.11792,2.35559 0.048,4.36008 -0.15545,4.45442 -0.81099,0.37616 -7.44524,-0.98431 -11.178097,-2.29225 -3.658919,-1.28204 -4.235819,-1.65507 -7.611203,-4.92144 -3.465752,-3.35382 -3.703462,-3.70047 -4.655969,-6.78991 z m 26.956659,-6.91237 c 0.18459,0.0139 0.27633,-1.26725 0.20387,-2.84692 -0.33285,-7.2557 -4.52355,-12.37802 -8.89867,-10.87689 -2.16392,0.74246 -4.768303,3.79092 -5.803243,6.79275 l -0.679424,1.97067 7.420917,2.46759 c 4.0815,1.35718 7.57195,2.47894 7.75655,2.4928 z"
       id="path3525"
       inkscape:connector-curvature="0"
       inkscape:export-filename="C:\Users\Jonathan\Desktop\Settings_title0.png"
       inkscape:export-xdpi="89"
       inkscape:export-ydpi="89" />
    <path
       style="fill:#008000;fill-opacity:1;stroke:#000000;stroke-width:0.04747717;stroke-linecap:butt;stroke-linejoin:miter;stroke-miterlimit:4;stroke-opacity:0;stroke-dasharray:none"
       d="m 254.36908,70.209767 c -4.02798,-0.552977 -7.41678,-1.09394 -7.53066,-1.202141 -0.3845,-0.365314 4.19147,-31.115158 4.76952,-32.050455 0.0986,-0.159534 2.18072,-0.0064 4.62693,0.34034 2.44622,0.346722 4.84541,0.645377 5.33155,0.663679 0.82327,0.03099 0.88388,1.176361 0.88388,16.700793 0,9.167134 -0.17046,16.641795 -0.3788,16.610356 -0.20835,-0.03144 -3.67443,-0.509595 -7.70242,-1.062572 z"
       id="path3527"
       inkscape:connector-curvature="0"
       transform="translate(0,962.36218)"
       inkscape:export-filename="C:\Users\Jonathan\Desktop\Settings_title1.png"
       inkscape:export-xdpi="89"
       inkscape:export-ydpi="89" />
    <path
       style="fill:#008000;fill-opacity:1;stroke:#000000;stroke-width:0.04747717;stroke-linecap:butt;stroke-linejoin:miter;stroke-miterlimit:4;stroke-opacity:0;stroke-dasharray:none"
       d="m 414.54574,1131.9311 c -2.10985,0.5458 -2.34935,0.477 -3.53862,-1.0165 -0.70159,-0.881 -2.46638,-3.5562 -3.92176,-5.9448 l -2.64615,-4.343 5.41774,-1.1057 c 6.62363,-1.3519 8.66786,-2.383 9.32746,-4.705 1.05154,-3.7019 -2.0916,-5.5743 -7.65748,-4.5617 -5.7715,1.05 -9.32193,0.859 -12.02254,-0.6467 -2.26714,-1.264 -2.7487,-1.7884 -4.38573,-4.7759 -3.12471,-5.7024 -3.01101,-9.1246 0.41424,-12.4703 2.16826,-2.1178 9.08382,-5.413 12.64275,-6.0241 3.09114,-0.5308 2.73836,-0.7268 6.15059,3.4168 l 0.98648,1.1979 -4.69688,2.3955 c -5.69012,2.9021 -6.63324,4.1036 -5.21602,6.6455 0.66849,1.1989 1.38413,1.7023 2.98283,2.0982 1.97431,0.4889 9.64517,0.3321 10.63048,-0.2173 0.83437,-0.4652 6.37879,1.6918 8.73918,3.3999 3.50415,2.5358 5.16211,5.7687 4.87592,9.5076 -0.2719,3.552 -1.72763,6.8003 -4.16731,9.2987 -2.21908,2.2726 -10.57448,6.9866 -13.91516,7.8509 l 0,0 z"
       id="path3529"
       inkscape:connector-curvature="0"
       inkscape:export-filename="C:\Users\Jonathan\Desktop\Settings_title2.png"
       inkscape:export-xdpi="89"
       inkscape:export-ydpi="89" />
    <path
       style="fill:#008000;fill-opacity:1;stroke:#000000;stroke-width:0.04747717;stroke-linecap:butt;stroke-linejoin:miter;stroke-miterlimit:4;stroke-opacity:0;stroke-dasharray:none"
       d="m 255.22068,31.420106 c -1.93085,-0.579585 -2.77286,-1.352956 -3.91897,-3.599525 -1.94203,-3.806689 -0.81541,-7.261643 2.96464,-9.091532 5.72567,-2.771752 12.58134,1.633525 11.50134,7.390463 -0.38989,2.078287 -3.05211,4.54252 -5.70269,5.278593 -2.19309,0.609024 -2.87833,0.612136 -4.84432,0.022 z"
       id="path3531"
       inkscape:connector-curvature="0"
       transform="translate(0,962.36218)"
       inkscape:export-filename="C:\Users\Jonathan\Desktop\Settings_title1.png"
       inkscape:export-xdpi="89"
       inkscape:export-ydpi="89" />
    <path
       style="fill:#00ffff;fill-opacity:1;stroke:#000000;stroke-width:0.04747717;stroke-linecap:butt;stroke-linejoin:miter;stroke-miterlimit:4;stroke-opacity:0;stroke-dasharray:none"
       d="m 143.95488,941.03462 c -2.09872,-1.46217 -3.92483,-5.19604 -4.01046,-8.20022 -0.0677,-2.3742 0.13867,-2.9996 3.22786,-9.78287 1.8151,-3.98558 4.47964,-9.66522 5.9212,-12.62141 1.44157,-2.9562 2.55285,-5.63789 2.46951,-5.95933 -0.10248,-0.3953 -1.2626,-0.7472 -3.5847,-1.08736 -1.88824,-0.2766 -3.49234,-0.61506 -3.56465,-0.75212 -0.19961,-0.37832 3.89893,-7.16085 4.52539,-7.48894 0.30116,-0.15771 1.93895,-0.17236 3.63954,-0.0326 3.55919,0.29261 3.672,0.20879 7.42844,-5.5194 l 2.44943,-3.73516 2.92614,0.56572 c 1.60938,0.31114 4.0304,0.88135 5.38005,1.26714 l 2.4539,0.70143 -1.36934,3.14511 c -0.75314,1.72981 -1.66586,4.0645 -2.02828,5.18821 l -0.65889,2.04311 3.76789,1.16513 3.76788,1.16512 -2.15539,4.22373 -2.15538,4.22372 -3.47495,-0.92019 c -2.54959,-0.67514 -3.60917,-0.74948 -3.97895,-0.27917 -0.51531,0.65539 -7.41533,16.68241 -9.01775,20.94595 l -0.88749,2.36135 2.44039,1.51123 c 1.34222,0.83118 2.49351,1.58315 2.55842,1.67105 0.0649,0.0879 -2.5334,1.98064 -5.77402,4.20608 -6.41907,4.40819 -6.74177,4.47071 -10.29575,1.99465 l 0,0 z"
       id="path3535"
       inkscape:connector-curvature="0"
       inkscape:export-filename="C:\Users\Jonathan\Desktop\Settings_title0.png"
       inkscape:export-xdpi="89"
       inkscape:export-ydpi="89" />
    <path
       style="fill:#00ffff;fill-opacity:1;stroke:#000000;stroke-width:0.04747717;stroke-linecap:butt;stroke-linejoin:miter;stroke-miterlimit:4;stroke-opacity:0;stroke-dasharray:none"
       d="m 318.11595,68.708067 -4.1859,-0.998473 0.13839,-8.922918 c 0.14693,-9.473924 -0.29381,-12.399367 -2.1473,-14.25286 -1.42497,-1.424967 -4.24812,-1.300352 -5.8047,0.256221 -1.22019,1.220197 -1.23982,1.377389 -1.24529,9.975257 -0.003,4.804538 -0.1405,9.551244 -0.30542,10.548236 l -0.29987,1.812712 -5.86271,1.074073 c -3.22449,0.590741 -5.98492,0.875705 -6.13429,0.633254 -0.14938,-0.242451 -1.03887,-7.414182 -1.97664,-15.937179 -1.44536,-13.1361 -1.59921,-15.598171 -1.01016,-16.164819 0.7271,-0.699433 13.15724,-7.323402 13.74266,-7.323402 0.18522,0 0.33676,1.963019 0.33676,4.362264 l 0,4.362264 2.46166,-2.302592 c 3.25458,-3.044279 5.65679,-3.763308 10.05557,-3.009829 4.23492,0.725411 6.94695,2.578201 8.66838,5.922011 1.48973,2.893761 1.55502,4.577961 0.81779,21.096728 l -0.44519,9.975256 -1.30892,-0.05387 c -0.71991,-0.02963 -3.19258,-0.503178 -5.49482,-1.052338 l 0,0 z"
       id="path3537"
       inkscape:connector-curvature="0"
       transform="translate(0,962.36218)"
       inkscape:export-filename="C:\Users\Jonathan\Desktop\Settings_title1.png"
       inkscape:export-xdpi="89"
       inkscape:export-ydpi="89" />
    <path
       style="fill:#00ffff;fill-opacity:1;stroke:#000000;stroke-width:0.04747717;stroke-linecap:butt;stroke-linejoin:miter;stroke-miterlimit:4;stroke-opacity:0;stroke-dasharray:none"
       d="m 48.43237,1132.5178 c -3.816198,0.4255 -13.063068,0.7771 -13.14413,0.4998 -0.01613,-0.055 -0.553409,-2.6811 -1.194005,-5.8355 -0.640598,-3.1544 -1.4801,-6.2889 -1.865563,-6.9654 -0.385463,-0.6766 -0.598304,-1.2645 -0.472979,-1.3064 0.125322,-0.042 2.195665,0.1522 4.600764,0.4316 3.618399,0.4202 4.919061,0.3294 7.538289,-0.5263 5.325704,-1.74 6.584885,-4.1211 4.843486,-9.1594 -1.980838,-5.7311 -4.708158,-7.3119 -12.956622,-7.51 -11.413075,-0.2742 -18.611928,-5.9577 -20.495123,-16.1812 -1.134231,-6.1575 0.333942,-10.217 4.891261,-13.5244 3.368492,-2.4446 12.396122,-4.9758 21.564338,-6.0463 l 6.919985,-0.808 1.735955,4.2095 c 0.954775,2.3152 2.159971,4.9498 2.678214,5.8547 l 0.94226,1.6453 -4.249248,-0.206 c -7.827769,-0.3796 -13.315549,1.8732 -13.585399,5.5768 -0.33968,4.6621 3.220433,7.5789 9.827553,8.0517 9.36018,0.6697 14.911299,3.2361 18.708546,8.6493 0.88781,1.2656 1.953902,3.3158 2.36909,4.556 1.223124,3.6536 1.959089,10.5595 1.439688,13.5093 -0.639844,3.6338 -3.480244,8.6482 -5.977257,10.5521 -2.637687,2.0112 -8.56207,3.9132 -14.119099,4.5328 z"
       id="path3539"
       inkscape:connector-curvature="0"
       inkscape:export-filename="C:\Users\Jonathan\Desktop\Settings_title2.png"
       inkscape:export-xdpi="89"
       inkscape:export-ydpi="89" />
    <path
       style="fill:#ff00ff;fill-opacity:1;stroke:#000000;stroke-width:0.04747717;stroke-linecap:butt;stroke-linejoin:miter;stroke-miterlimit:4;stroke-opacity:0;stroke-dasharray:none"
       d="m 196.29307,938.66451 c -1.92387,-1.6856 -3.32525,-5.59873 -3.07766,-8.59391 0.19566,-2.3671 0.47,-2.9658 4.2914,-9.36523 2.24531,-3.76006 5.52244,-9.10968 7.28252,-11.88804 1.76008,-2.77837 3.1615,-5.32051 3.11429,-5.64919 -0.0581,-0.40422 -1.17211,-0.88243 -3.44223,-1.47766 -1.84601,-0.48402 -3.40275,-0.99803 -3.45945,-1.14226 -0.15648,-0.39809 4.66797,-6.68502 5.32692,-6.94171 0.31677,-0.12339 1.94611,0.0434 3.62075,0.37071 3.50489,0.68496 3.6263,0.61415 7.99399,-4.6628 l 2.84801,-3.44092 2.8455,0.88629 c 1.56501,0.48745 3.908,1.32227 5.20662,1.85515 l 2.36113,0.96887 -1.70922,2.97412 c -0.94008,1.63576 -2.10574,3.85501 -2.59037,4.93167 l -0.8811,1.95758 3.61567,1.57523 3.61568,1.57523 -2.60988,3.95904 -2.60988,3.95905 -3.35168,-1.29936 c -2.45912,-0.95333 -3.50395,-1.14456 -3.92355,-0.7181 -0.58473,0.59429 -9.2172,15.75859 -11.28192,19.81845 l -1.14353,2.24854 2.25802,1.7722 c 1.24191,0.9747 2.30283,1.84955 2.35762,1.9441 0.0548,0.0946 -2.73716,1.68789 -6.20431,3.54077 -6.86777,3.6702 -7.19541,3.6966 -10.45331,0.84219 l 0,0 z"
       id="path3541"
       inkscape:connector-curvature="0"
       inkscape:export-filename="C:\Users\Jonathan\Desktop\Settings_title0.png"
       inkscape:export-xdpi="89"
       inkscape:export-ydpi="89" />
    <path
       style="fill:#ff00ff;fill-opacity:1;stroke:#000000;stroke-width:0.04747717;stroke-linecap:butt;stroke-linejoin:miter;stroke-miterlimit:4;stroke-opacity:0;stroke-dasharray:none"
       d="m 356.77851,79.901902 c -1.03885,-0.260276 -3.50423,-1.28674 -5.47863,-2.281031 l -3.58982,-1.807803 0.36097,-6.408663 c 0.19854,-3.524765 0.41282,-6.468287 0.47619,-6.54116 0.0634,-0.07287 2.47996,0.982822 5.37021,2.345989 6.80649,3.210245 8.63009,3.548688 10.27233,1.906446 1.14627,-1.146265 2.25023,-4.596859 1.65965,-5.187445 -0.14454,-0.144534 -1.70676,-0.564906 -3.4716,-0.934159 -6.90272,-1.444238 -12.56261,-5.314163 -14.55885,-9.954554 -2.10003,-4.881633 -0.7201,-12.23205 2.819,-15.015906 3.14934,-2.477273 9.33189,-2.61258 13.9266,-0.304788 1.38574,0.696017 2.72814,1.265485 2.98311,1.265485 0.25496,0 0.46357,-1.009025 0.46357,-2.242278 l 0,-2.242279 4.16688,-1.261326 c 7.00957,-2.121815 6.76944,-2.105647 7.1208,-0.479447 0.61935,2.866612 0.94269,28.199686 0.42198,33.061571 -0.81202,7.581752 -3.66519,12.277995 -9.06427,14.919517 -2.36737,1.158245 -3.60438,1.410576 -7.41533,1.512601 -2.51568,0.06735 -5.42394,-0.09049 -6.46279,-0.35077 l 0,0 z m 10.94412,-25.023458 c 0.5886,-0.588604 0.79369,-1.832654 0.79369,-4.8145 0,-4.739404 -0.35557,-5.055242 -4.98408,-4.42714 -4.32124,0.586404 -5.56046,2.747907 -3.88053,6.768558 0.40252,0.963349 0.80026,1.754967 0.88389,1.759149 0.0836,0.0042 1.06118,0.335133 2.17234,0.735446 2.65112,0.955097 4.04406,0.949121 5.01469,-0.02151 l 0,-1e-6 z"
       id="path3543"
       inkscape:connector-curvature="0"
       transform="translate(0,962.36218)"
       inkscape:export-filename="C:\Users\Jonathan\Desktop\Settings_title1.png"
       inkscape:export-xdpi="89"
       inkscape:export-ydpi="89" />
    <path
       style="fill:#ff00ff;fill-opacity:1;stroke:#000000;stroke-width:0.04747717;stroke-linecap:butt;stroke-linejoin:miter;stroke-miterlimit:4;stroke-opacity:0;stroke-dasharray:none"
       d="m 101.50918,1130.7649 c -8.998242,-0.036 -15.749484,-4.9483 -20.025771,-14.5696 -4.133628,-9.3004 -1.801259,-15.8627 7.287942,-20.505 4.674068,-2.3871 7.017336,-2.6954 12.328939,-1.6214 3.02149,0.611 9.72238,3.4161 9.48612,3.9711 -0.0554,0.1302 -0.92754,1.6192 -1.93809,3.309 -1.01054,1.6898 -3.45241,6.0422 -5.42637,9.672 -3.243997,5.9651 -3.498651,6.6626 -2.64878,7.2553 1.4206,0.9906 4.49854,1.0475 6.33284,0.117 1.91347,-0.9709 3.49823,-2.7711 5.3072,-6.0297 l 1.30285,-2.3469 4.15162,1.0738 c 2.2834,0.5905 4.17562,1.2556 4.20495,1.4779 0.11694,0.8863 -3.16178,6.8121 -5.52433,9.9843 -2.31576,3.1095 -2.84398,3.5487 -6.96897,5.7952 -4.23542,2.3067 -4.63725,2.4301 -7.87015,2.417 z m 1.44913,-27.791 c 0.0683,-0.1721 -1.127,-0.6421 -2.65629,-1.0444 -7.024276,-1.8481 -13.163972,0.6226 -13.037211,5.2463 0.0627,2.2869 2.194784,5.6825 4.750851,7.5663 l 1.678022,1.2367 4.570191,-6.3461 c 2.513607,-3.4903 4.626107,-6.4868 4.694437,-6.6588 z"
       id="path3545"
       inkscape:connector-curvature="0"
       inkscape:export-filename="C:\Users\Jonathan\Desktop\Settings_title2.png"
       inkscape:export-xdpi="89"
       inkscape:export-ydpi="89" />
    <path
       style="fill:#ffff00;fill-opacity:1;stroke:#000000;stroke-width:0.04747717;stroke-linecap:butt;stroke-linejoin:miter;stroke-miterlimit:4;stroke-opacity:0;stroke-dasharray:none"
       d="m 247.18927,942.08624 c -3.50505,-1.7323 -6.4194,-3.24291 -6.47633,-3.35689 -0.12442,-0.2491 10.18826,-20.73981 12.7315,-25.29678 0.98714,-1.76872 1.97453,-3.30565 2.19423,-3.41538 0.21969,-0.10974 2.51486,0.83974 5.10037,2.10995 l 4.70092,2.30946 -5.11092,15.73242 c -4.79941,14.77356 -5.16136,15.71215 -5.93893,15.39966 -0.45541,-0.18303 -3.69579,-1.75012 -7.20084,-3.48244 l 0,0 z"
       id="path3547"
       inkscape:connector-curvature="0"
       inkscape:export-filename="C:\Users\Jonathan\Desktop\Settings_title0.png"
       inkscape:export-xdpi="89"
       inkscape:export-ydpi="89" />
    <path
       style="fill:#ffff00;fill-opacity:1;stroke:#000000;stroke-width:0.04747717;stroke-linecap:butt;stroke-linejoin:miter;stroke-miterlimit:4;stroke-opacity:0;stroke-dasharray:none"
       d="m 259.95406,905.18945 c -2.72277,-2.45017 -2.56724,-8.27851 0.28097,-10.52885 1.52966,-1.20857 5.27897,-1.74093 7.36267,-1.04541 2.23002,0.74435 4.82379,3.45832 5.34144,5.58897 0.57614,2.37137 -0.79979,5.97361 -2.69849,7.06476 -2.97684,1.71075 -7.74156,1.21074 -10.28659,-1.07947 l 0,0 z"
       id="path3549"
       inkscape:connector-curvature="0"
       inkscape:export-filename="C:\Users\Jonathan\Desktop\Settings_title0.png"
       inkscape:export-xdpi="89"
       inkscape:export-ydpi="89" />
    <path
       style="fill:#ffff00;fill-opacity:1;stroke:#000000;stroke-width:0.04747717;stroke-linecap:butt;stroke-linejoin:miter;stroke-miterlimit:4;stroke-opacity:0;stroke-dasharray:none"
       d="m 403.89871,71.559252 c -1.51298,-0.4207 -2.78956,-0.814962 -2.83684,-0.876138 -0.0473,-0.06118 -0.2408,-3.206117 -0.43003,-6.988758 l -0.34406,-6.87753 5.70628,1.738296 c 6.19344,1.886699 8.44233,1.929048 10.17969,0.191695 1.23847,-1.238477 1.29446,-3.74449 0.11283,-5.050182 -0.48699,-0.538111 -2.39996,-1.577022 -4.25106,-2.308692 -6.29488,-2.488129 -8.85059,-4.026499 -10.4367,-6.282225 -1.43082,-2.034864 -1.51509,-2.426619 -1.51271,-7.032194 0.003,-5.90466 0.85209,-7.796338 4.30218,-9.585454 2.07845,-1.077826 2.73092,-1.154163 8.06967,-0.94413 3.64738,0.143493 6.68824,0.546124 8.17332,1.082206 2.24282,0.809612 2.39279,0.983538 2.90419,3.368101 0.96372,4.493687 1.0965,4.347242 -3.50185,3.862318 -7.04009,-0.742421 -10.12291,0.952413 -8.56661,4.709649 0.76185,1.839281 5.09702,4.873385 8.59778,6.017438 2.81837,0.921046 6.73392,4.736729 8.1682,7.959861 0.68248,1.533692 1.07863,3.507781 1.10457,5.504369 0.0349,2.684938 -0.16969,3.412081 -1.48762,5.287402 -1.86298,2.650891 -5.17172,5.245028 -7.70233,6.03881 -3.06156,0.96033 -13.05172,1.074169 -16.2489,0.185158 l 0,0 z"
       id="path3551"
       inkscape:connector-curvature="0"
       transform="translate(0,962.36218)"
       inkscape:export-filename="C:\Users\Jonathan\Desktop\Settings_title1.png"
       inkscape:export-xdpi="89"
       inkscape:export-ydpi="89" />
    <path
       style="fill:#ffff00;fill-opacity:1;stroke:#000000;stroke-width:0.04747717;stroke-linecap:butt;stroke-linejoin:miter;stroke-miterlimit:4;stroke-opacity:0;stroke-dasharray:none"
       d="m 159.63981,1126.906 c -2.55644,0.085 -6.25408,-1.8137 -8.12066,-4.1692 -1.47516,-1.8616 -1.68415,-2.4861 -3.26904,-9.7692 -0.93122,-4.2793 -2.1958,-10.4241 -2.81017,-13.6552 -0.61438,-3.2311 -1.32908,-6.0445 -1.58823,-6.2522 -0.31867,-0.2553 -1.45869,0.1571 -3.52256,1.2743 -1.67828,0.9085 -3.16592,1.5974 -3.30589,1.5309 -0.38634,-0.1836 -1.16218,-8.0702 -0.85665,-8.708 0.14687,-0.3066 1.45019,-1.2985 2.89625,-2.2043 3.0265,-1.8957 3.06671,-2.0304 2.64782,-8.8676 l -0.27315,-4.4583 2.68279,-1.2981 c 1.47554,-0.7139 3.75636,-1.7061 5.06848,-2.2048 l 2.38571,-0.9067 0.78529,3.3392 c 0.43192,1.8366 1.09801,4.2532 1.4802,5.3704 l 0.69493,2.0311 3.71587,-1.3216 3.71588,-1.3217 0.80113,4.6738 0.80112,4.6737 -3.33461,1.3425 c -2.44661,0.9851 -3.33997,1.5597 -3.35474,2.1577 -0.0206,0.8335 4.04366,17.8028 5.31162,22.1775 l 0.70225,2.4229 2.85953,-0.2499 c 1.57274,-0.1374 2.94512,-0.224 3.04973,-0.1924 0.10462,0.032 -0.84418,3.1029 -2.10842,6.8253 -2.50424,7.3733 -2.72535,7.6165 -7.05444,7.7599 l 0,0 z"
       id="path3553"
       inkscape:connector-curvature="0"
       inkscape:export-filename="C:\Users\Jonathan\Desktop\Settings_title2.png"
       inkscape:export-xdpi="89"
       inkscape:export-ydpi="89" />
    <path
       style="fill:#000080;fill-opacity:1;stroke:#000000;stroke-width:0.04747717;stroke-linecap:butt;stroke-linejoin:miter;stroke-miterlimit:4;stroke-opacity:0;stroke-dasharray:none"
       d="m 312.7554,946.13166 -4.24452,-3.006 3.3725,-8.56387 c 4.56895,-11.60206 4.62575,-14.96004 0.26717,-15.79697 -3.35998,-0.64518 -3.73537,-0.15743 -8.17283,10.61882 l -3.98401,9.67507 -6.05363,-1.13172 c -3.3295,-0.62244 -6.1049,-1.24959 -6.16756,-1.39367 -0.0627,-0.14408 1.75215,-7.21518 4.03292,-15.71357 3.70921,-13.82091 4.2455,-15.4776 5.08151,-15.69791 0.51406,-0.13547 4.23358,-0.5779 8.26562,-0.98317 l 7.33095,-0.73687 -1.58375,4.02165 c -0.87106,2.2119 -1.4188,4.08661 -1.2172,4.16599 0.2016,0.0794 1.40088,-0.34191 2.66509,-0.93622 3.27052,-1.53751 6.60547,-1.57982 9.19386,-0.11664 5.14537,2.90859 7.1086,5.61157 7.35332,10.1241 0.16493,3.04134 0.16232,3.04961 -3.60327,11.39558 -2.07258,4.59361 -4.58031,10.41393 -5.57274,12.93403 -1.08803,2.76286 -1.98595,4.49572 -2.26166,4.36468 -0.2515,-0.11952 -2.36728,-1.57001 -4.70177,-3.22331 z"
       id="path3555"
       inkscape:connector-curvature="0"
       inkscape:export-filename="C:\Users\Jonathan\Desktop\Settings_title0.png"
       inkscape:export-xdpi="89"
       inkscape:export-ydpi="89" />
    <path
       style="fill:#000080;fill-opacity:1;stroke:#000000;stroke-width:0.04747717;stroke-linecap:butt;stroke-linejoin:miter;stroke-miterlimit:4;stroke-opacity:0;stroke-dasharray:none"
       d="m 39.200443,75.401773 c -2.364614,-0.499076 -6.314988,-1.522234 -8.77861,-2.273681 l -4.479313,-1.366277 0.338315,-2.61527 c 0.186074,-1.438396 0.476471,-4.71765 0.645328,-7.287225 0.168857,-2.569576 0.361744,-4.671956 0.428636,-4.671956 0.06689,0 1.597434,0.690615 3.401202,1.5347 6.600093,3.088556 11.834836,3.020563 14.210726,-0.184585 1.439331,-1.941699 1.527195,-8.508797 0.142118,-10.622056 C 43.831926,45.967185 40.274289,43.830752 35.804273,42.32784 27.452876,39.519928 22.354672,33.434235 21.688377,25.477785 20.870741,15.714124 25.092412,10.051095 34.249993,8.6273974 c 4.188416,-0.6511585 11.170202,0.1035225 20.8665,2.2555186 l 5.050763,1.120967 0.319428,5.545416 c 0.175685,3.049979 0.474029,5.916898 0.662985,6.370931 0.271049,0.65129 -0.644918,0.454229 -4.340055,-0.933721 -4.131895,-1.552002 -5.123742,-1.737009 -8.419941,-1.570559 -3.343302,0.168829 -3.863415,0.336422 -4.944477,1.593231 -0.83803,0.974268 -1.208147,2.022534 -1.208147,3.421778 0,4.019055 2.057022,6.282819 7.923808,8.72019 7.284536,3.026379 11.825901,7.084856 13.836751,12.365472 1.924316,5.053374 1.165863,14.434022 -1.606394,19.868092 -1.619987,3.17544 -5.562411,6.734444 -8.803066,7.946925 -3.494254,1.30737 -8.412138,1.331341 -14.387705,0.07014 l 0,0 z"
       id="path3557"
       inkscape:connector-curvature="0"
       transform="translate(0,962.36218)"
       inkscape:export-filename="C:\Users\Jonathan\Desktop\Settings_title1.png"
       inkscape:export-xdpi="89"
       inkscape:export-ydpi="89" />
    <path
       style="fill:#000080;fill-opacity:1;stroke:#000000;stroke-width:0.04747717;stroke-linecap:butt;stroke-linejoin:miter;stroke-miterlimit:4;stroke-opacity:0;stroke-dasharray:none"
       d="m 214.75912,1125.8801 c -2.55623,0.091 -6.25856,-1.7982 -8.13098,-4.1491 -1.47977,-1.8578 -1.6903,-2.4819 -3.29325,-9.761 -0.94182,-4.277 -2.22163,-10.4187 -2.84403,-13.6482 -0.62239,-3.2295 -1.34406,-6.0412 -1.60371,-6.2482 -0.31931,-0.2546 -1.45831,0.1607 -3.5194,1.283 -1.67601,0.9127 -3.16195,1.6053 -3.30208,1.5391 -0.38678,-0.1826 -1.18219,-8.0673 -0.87824,-8.7059 0.14612,-0.3069 1.44696,-1.3021 2.89078,-2.2114 3.02178,-1.9033 3.06166,-2.038 2.62582,-8.8742 l -0.2842,-4.4576 2.67956,-1.3047 c 1.47376,-0.7176 3.75211,-1.7154 5.06301,-2.2173 l 2.38344,-0.9126 0.79358,3.3372 c 0.43646,1.8354 1.10854,4.2504 1.4935,5.3666 l 0.69997,2.0294 3.71258,-1.3308 3.7126,-1.3309 0.8127,4.6718 0.81272,4.6717 -3.33127,1.3508 c -2.44416,0.9911 -3.33608,1.5679 -3.34937,2.166 -0.0185,0.8335 4.08778,17.7927 5.36659,22.1642 l 0.70826,2.4212 2.85889,-0.257 c 1.57239,-0.1413 2.94455,-0.2313 3.04925,-0.2 0.1047,0.031 -0.83649,3.1051 -2.0915,6.8305 -2.48595,7.3795 -2.70645,7.6233 -7.03517,7.7774 l 0,0 z"
       id="path3559"
       inkscape:connector-curvature="0"
       inkscape:export-filename="C:\Users\Jonathan\Desktop\Settings_title2.png"
       inkscape:export-xdpi="89"
       inkscape:export-ydpi="89" />
    <path
       style="fill:#00ff00;fill-opacity:1;stroke:#000000;stroke-width:0.04747717;stroke-linecap:butt;stroke-linejoin:miter;stroke-miterlimit:4;stroke-opacity:0;stroke-dasharray:none"
       d="m 350.60251,950.19689 c -1.30381,-0.83613 -3.72378,-3.0634 -5.3777,-4.94948 l -3.00715,-3.42924 2.80405,-5.85646 c 1.54221,-3.22106 2.88103,-5.89565 2.97513,-5.94353 0.0941,-0.0479 1.6267,1.6361 3.40577,3.74219 3.673,4.34813 6.28684,6.57708 8.044,6.85951 1.43274,0.23028 3.54757,-1.37195 4.38387,-3.32129 0.53707,-1.25186 0.43259,-1.49975 -1.02135,-2.42325 -4.76803,-3.02852 -9.37184,-8.63397 -10.37812,-12.63604 -0.60572,-2.40901 -0.30991,-6.32728 0.64586,-8.55508 1.19464,-2.78458 4.16417,-5.80127 6.71309,-6.81972 4.50556,-1.80024 9.45184,-0.0352 13.85113,4.94273 1.26731,1.43399 2.38988,2.64402 2.49461,2.68896 0.10472,0.0449 0.63242,-0.94861 1.17266,-2.20786 0.76273,-1.77785 1.18725,-2.26633 1.89952,-2.18573 4.63908,0.52497 10.21245,1.31361 10.26473,1.45248 0.28428,0.75511 -8.3299,22.21739 -11.33903,28.25124 -3.48916,6.99641 -3.71468,7.32903 -6.69216,9.87022 -3.43736,2.93371 -6.51302,4.05307 -10.60935,3.8612 -3.32207,-0.1556 -7.27657,-1.4471 -10.22956,-3.34085 z m 18.33263,-19.77556 c 0.51999,-0.26598 1.37833,-1.85784 2.34653,-4.35186 l 1.52663,-3.93248 -3.08467,-1.32338 c -4.02858,-1.72834 -5.38547,-1.35201 -6.77121,1.878 -1.42942,3.33184 -0.34502,5.49674 3.73825,7.46307 0.78352,0.37731 1.79352,0.4973 2.24447,0.26665 l 0,0 z"
       id="path3561"
       inkscape:connector-curvature="0"
       inkscape:export-filename="C:\Users\Jonathan\Desktop\Settings_title0.png"
       inkscape:export-xdpi="89"
       inkscape:export-ydpi="89" />
    <path
       style="fill:#00ff00;fill-opacity:1;stroke:#000000;stroke-width:0.04747717;stroke-linecap:butt;stroke-linejoin:miter;stroke-miterlimit:4;stroke-opacity:0;stroke-dasharray:none"
       d="m 93.856874,71.263837 c -4.158922,-2.117303 -8.229079,-6.480263 -9.699438,-10.397204 -2.146241,-5.717449 -2.178343,-15.086939 -0.06574,-19.186535 2.298143,-4.45964 7.022257,-7.230367 12.986221,-7.616514 6.723273,-0.43531 12.724543,2.596796 17.548993,8.866519 l 2.32414,3.0204 -9.32527,6.198491 c -5.12889,3.409169 -9.325267,6.485469 -9.325267,6.836223 0,0.888694 2.837137,3.185144 4.428517,3.584556 1.92811,0.483923 5.41297,-0.61012 8.52667,-2.676878 l 2.7272,-1.810208 2.63914,2.410393 c 1.45153,1.325717 2.95157,2.694879 3.33343,3.042583 0.5747,0.5233 0.13972,1.04358 -2.52539,3.020654 -1.77081,1.313655 -4.92165,3.203274 -7.00186,4.199152 -3.38314,1.619639 -4.28909,1.827418 -8.5863,1.969237 -4.560992,0.150526 -4.965067,0.0766 -7.985048,-1.460869 l 0,0 z m 6.833446,-20.497955 c 3.67563,-1.885128 6.68715,-3.695063 6.69227,-4.022079 0.0126,-0.806332 -3.31294,-3.498749 -5.83228,-4.721897 -1.28424,-0.623505 -3.09601,-0.996982 -4.836447,-0.996982 -2.338602,0 -2.978459,0.208108 -4.007414,1.303381 -1.046253,1.113685 -1.222917,1.793651 -1.213836,4.671956 0.01012,3.207674 1.164358,7.132245 2.110174,7.174885 0.222519,0.01003 3.411911,-1.524137 7.087533,-3.409264 z"
       id="path3563"
       inkscape:connector-curvature="0"
       transform="translate(0,962.36218)"
       inkscape:export-filename="C:\Users\Jonathan\Desktop\Settings_title1.png"
       inkscape:export-xdpi="89"
       inkscape:export-ydpi="89" />
    <path
       style="fill:#00ff00;fill-opacity:1;stroke:#000000;stroke-width:0.04747717;stroke-linecap:butt;stroke-linejoin:miter;stroke-miterlimit:4;stroke-opacity:0;stroke-dasharray:none"
       d="m 263.40974,1126.5488 c -3.78269,0.9887 -6.97392,1.7578 -7.09162,1.709 -0.25723,-0.1066 -5.89721,-22.342 -6.96284,-27.4507 -0.4136,-1.9828 -0.67508,-3.7908 -0.58107,-4.0176 0.094,-0.2269 2.44983,-1.014 5.23514,-1.7491 l 5.06419,-1.3365 6.4504,15.2323 c 6.05726,14.3039 6.39901,15.25 5.6069,15.5236 -0.46392,0.1603 -3.93842,1.1003 -7.7211,2.089 l 0,0 z"
       id="path3565"
       inkscape:connector-curvature="0"
       inkscape:export-filename="C:\Users\Jonathan\Desktop\Settings_title2.png"
       inkscape:export-xdpi="89"
       inkscape:export-ydpi="89" />
    <path
       style="fill:#00ff00;fill-opacity:1;stroke:#000000;stroke-width:0.04747717;stroke-linecap:butt;stroke-linejoin:miter;stroke-miterlimit:4;stroke-opacity:0;stroke-dasharray:none"
       d="m 248.86965,1090.3148 c -3.6623,-0.066 -7.3646,-4.5702 -6.68817,-8.1365 0.36328,-1.9154 2.84626,-4.7747 4.87589,-5.615 2.17217,-0.8993 5.90993,-0.5493 7.69729,0.7207 1.9893,1.4135 3.31089,5.0361 2.59192,7.1046 -1.12723,3.2431 -5.05372,5.9881 -8.47693,5.9262 l 0,0 z"
       id="path3567"
       inkscape:connector-curvature="0"
       inkscape:export-filename="C:\Users\Jonathan\Desktop\Settings_title2.png"
       inkscape:export-xdpi="89"
       inkscape:export-ydpi="89" />
    <path
       style="fill:#ff0066;fill-opacity:1;stroke:#000000;stroke-width:0.04747717;stroke-linecap:butt;stroke-linejoin:miter;stroke-miterlimit:4;stroke-opacity:0;stroke-dasharray:none"
       d="m 400.69331,938.71814 c -1.66463,-1.40655 -1.74687,-1.64177 -1.21519,-3.47538 0.31366,-1.0817 1.47724,-4.06787 2.58574,-6.63592 l 2.01545,-4.6692 4.03303,3.78275 c 4.93072,4.62472 6.95354,5.69726 9.2298,4.89384 3.62888,-1.28085 3.34081,-4.92808 -0.7018,-8.88556 -4.19196,-4.10368 -6.08769,-7.11171 -6.41935,-10.18585 -0.27843,-2.58072 -0.12871,-3.27677 1.36363,-6.33915 2.84846,-5.84533 5.70715,-7.73 10.41695,-6.86774 2.98142,0.54583 9.6669,4.28586 12.22213,6.83737 2.21936,2.21613 2.17546,1.81497 0.76539,6.9942 l -0.40765,1.49731 -4.66911,-2.44915 c -5.65648,-2.96708 -7.18211,-3.04248 -8.43771,-0.41703 -0.59225,1.23839 -0.58958,2.11334 0.0111,3.64686 0.74184,1.89383 5.30235,8.0638 6.32007,8.55051 0.86181,0.41216 2.30515,6.18364 2.27501,9.0971 -0.0448,4.32519 -1.72521,7.54641 -4.94207,9.47331 -3.05614,1.83062 -6.54837,2.5195 -9.99723,1.97207 -3.13701,-0.49794 -11.81247,-4.59322 -14.44822,-6.82035 l 0,0 z"
       id="path3569"
       inkscape:connector-curvature="0"
       inkscape:export-filename="C:\Users\Jonathan\Desktop\Settings_title0.png"
       inkscape:export-xdpi="89"
       inkscape:export-ydpi="89" />
    <path
       style="fill:#ff0066;fill-opacity:1;stroke:#000000;stroke-width:0.04747717;stroke-linecap:butt;stroke-linejoin:miter;stroke-miterlimit:4;stroke-opacity:0;stroke-dasharray:none"
       d="m 151.08099,69.709948 c -2.72216,-0.951539 -4.88343,-2.990173 -6.1857,-5.834702 -1.49072,-3.256151 -1.47665,-3.550631 0.97699,-20.448341 0.8771,-6.040397 1.45931,-11.117958 1.2938,-11.283467 -0.16551,-0.16551 -1.84148,-0.06109 -3.72437,0.232054 -1.8829,0.29314 -3.51684,0.43959 -3.63099,0.325445 -0.27673,-0.276727 1.33096,-7.405382 1.85994,-8.247164 0.22854,-0.363686 1.80821,-0.925916 3.51037,-1.249399 3.01544,-0.573062 3.12026,-0.647222 4.08533,-2.890586 0.54476,-1.26634 1.37401,-3.82927 1.84276,-5.6954 0.70995,-2.826316 1.03182,-3.400309 1.9273,-3.436944 0.59126,-0.02419 3.06376,-0.195912 5.49444,-0.381608 5.11983,-0.391138 4.75371,-0.9512537 3.8885,5.9489 -0.63314,5.049383 -0.62054,5.064636 4.19272,5.075555 1.8751,0.0043 3.40479,0.178197 3.39933,0.386541 -0.0338,1.28682 -1.46158,8.332349 -1.74656,8.61834 -0.19005,0.19072 -1.84602,0.460406 -3.67994,0.599302 -3.10423,0.235107 -3.35932,0.346374 -3.69563,1.612005 -0.45706,1.720033 -1.96585,16.760184 -2.11774,21.110289 l -0.11441,3.276858 2.0203,0.438832 c 4.01177,0.8714 4.0388,0.608109 -0.69148,6.735391 -4.70834,6.098871 -5.22413,6.39474 -8.90496,5.108099 z"
       id="path3571"
       inkscape:connector-curvature="0"
       transform="translate(0,962.36218)"
       inkscape:export-filename="C:\Users\Jonathan\Desktop\Settings_title1.png"
       inkscape:export-xdpi="89"
       inkscape:export-ydpi="89" />
    <path
       style="fill:#ff0066;fill-opacity:1;stroke:#000000;stroke-width:0.04747717;stroke-linecap:butt;stroke-linejoin:miter;stroke-miterlimit:4;stroke-opacity:0;stroke-dasharray:none"
       d="m 324.57363,1120.4374 -5.14554,0.7585 -3.47723,-8.5219 c -4.71083,-11.5451 -6.98939,-14.0124 -10.71906,-11.6067 -2.87516,1.8545 -2.80967,2.4665 1.4258,13.3237 l 3.80265,9.7478 -5.15893,3.3634 c -2.83742,1.8499 -5.27744,3.3136 -5.42227,3.2527 -0.14483,-0.061 -3.71719,-6.4274 -7.93856,-14.1478 -6.86523,-12.5556 -7.62187,-14.124 -7.16957,-14.8608 0.27812,-0.4531 2.66195,-3.3423 5.29742,-6.4206 l 4.79174,-5.5969 1.63293,4.0019 c 0.89811,2.2011 1.79706,3.935 1.99766,3.8531 0.20061,-0.082 0.77675,-1.2149 1.28031,-2.5179 1.30271,-3.3709 3.68487,-5.7052 6.56718,-6.4353 5.72963,-1.4512 9.01634,-0.8529 12.31046,2.2409 2.22015,2.0851 2.22398,2.0929 5.26645,10.7288 1.67458,4.7531 3.88188,10.6939 4.90513,13.2016 1.12181,2.7494 1.66958,4.6226 1.37971,4.7183 -0.26442,0.087 -2.79623,0.5001 -5.62628,0.9172 z"
       id="path3573"
       inkscape:connector-curvature="0"
       inkscape:export-filename="C:\Users\Jonathan\Desktop\Settings_title2.png"
       inkscape:export-xdpi="89"
       inkscape:export-ydpi="89" />
  </g>
</svg>
